<svg width="157" height="36" viewBox="0 0 157 36" fill="none" xmlns="http://www.w3.org/2000/svg">
<mask id="path-1-outside-1_677_3162" maskUnits="userSpaceOnUse" x="-2.56718" y="-2.14268" width="161.633" height="40.0904" fill="black">
<rect fill="white" x="-2.56718" y="-2.14268" width="161.633" height="40.0904"/>
<path d="M22.825 10.974L16.4315 10.5269C16.4232 9.99471 16.3358 9.50637 16.1694 9.06186C16.0106 8.61788 15.772 8.22908 15.4536 7.89545C15.1433 7.55479 14.7559 7.28468 14.2914 7.08513C13.8274 6.87802 13.2932 6.75333 12.6886 6.71105C11.6305 6.63706 10.717 6.83139 9.94804 7.29403C9.18661 7.75719 8.5834 8.45545 8.13842 9.38881C7.701 10.3227 7.43526 11.4622 7.34119 12.8074C7.24184 14.2282 7.34754 15.4317 7.65829 16.4179C7.97713 17.3971 8.48239 18.1538 9.17407 18.6882C9.86627 19.2151 10.7225 19.5142 11.7427 19.5855C12.3246 19.6262 12.8511 19.5909 13.3222 19.4795C13.7937 19.3606 14.2093 19.1732 14.5689 18.9174C14.9286 18.6616 15.2279 18.3446 15.467 17.9664C15.7142 17.5812 15.893 17.1418 16.0035 16.6483L22.3938 17.1407C22.2495 18.1179 21.9036 19.0999 21.3562 20.0869C20.8093 21.0663 20.0673 21.9561 19.1305 22.7563C18.2016 23.5495 17.0766 24.1619 15.7554 24.5935C14.4342 25.0252 12.9234 25.1815 11.223 25.0626C9.09188 24.9136 7.21185 24.3227 5.58296 23.2899C3.96163 22.2576 2.72183 20.8191 1.86357 18.9744C1.01286 17.1303 0.677348 14.9235 0.857023 12.354C1.03776 9.76942 1.68873 7.62779 2.80996 5.92914C3.93171 4.22293 5.37071 2.97557 7.12696 2.18707C8.88374 1.39101 10.805 1.06591 12.8909 1.21176C14.357 1.31428 15.6919 1.60888 16.8958 2.09556C18.0996 2.58223 19.1393 3.24349 20.015 4.07934C20.8912 4.90763 21.5735 5.90083 22.0621 7.05894C22.5507 8.21706 22.805 9.52207 22.825 10.974ZM24.6698 25.6839L26.2933 2.46791L36.3142 3.16865C38.0373 3.28913 39.5231 3.70819 40.7715 4.42581C42.0199 5.14343 42.9619 6.11682 43.5974 7.34596C44.2329 8.5751 44.4931 10.0134 44.3779 11.6609C44.2616 13.3235 43.7933 14.6995 42.9729 15.7889C42.16 16.8788 41.0682 17.6682 39.6974 18.1571C38.3342 18.6465 36.7684 18.8294 35 18.7057L29.0146 18.2872L29.357 13.3901L34.0728 13.7198C34.8134 13.7716 35.4508 13.725 35.9849 13.5801C36.5271 13.4282 36.9523 13.1579 37.2605 12.7694C37.5762 12.3814 37.757 11.8586 37.803 11.2012C37.8495 10.5361 37.7437 9.98572 37.4856 9.54999C37.2356 9.10723 36.8529 8.76911 36.3376 8.53562C35.8305 8.29511 35.2066 8.14896 34.4659 8.09717L32.2441 7.94181L30.9726 26.1247L24.6698 25.6839ZM39.0181 15.9794L44.077 27.041L37.2301 26.5622L32.3072 15.5101L39.0181 15.9794ZM45.5729 3.81607L52.6012 4.30754L56.476 14.0561L56.6574 14.0688L61.8513 4.95437L68.8796 5.44584L59.242 20.7654L58.7316 28.0658L52.4741 27.6282L52.9846 20.3279L45.5729 3.81607ZM69.3108 28.8055L70.9343 5.58951L80.9552 6.29025C82.6783 6.41074 84.1622 6.85624 85.4069 7.62677C86.6517 8.39729 87.59 9.42357 88.2218 10.7056C88.8536 11.9877 89.1119 13.4524 88.9967 15.0999C88.8804 16.7625 88.4094 18.1763 87.5837 19.3412C86.7656 20.5067 85.6685 21.3717 84.2924 21.9362C82.9239 22.5012 81.3555 22.7218 79.587 22.5982L73.6017 22.1796L73.9441 17.2825L78.6599 17.6123C79.4005 17.664 80.0405 17.5797 80.5799 17.3592C81.1274 17.1317 81.5579 16.7859 81.8713 16.3218C82.1923 15.8582 82.3758 15.2976 82.4218 14.6402C82.4683 13.9751 82.3644 13.3983 82.1099 12.9096C81.8636 12.414 81.4847 12.023 80.9731 11.7366C80.4696 11.4432 79.8476 11.2706 79.1069 11.2188L76.8851 11.0634L75.6136 29.2463L69.3108 28.8055ZM90.8932 12.0885L91.2483 7.01001L111.426 8.42099L111.071 13.4995L104.088 13.0112L102.82 31.1487L96.6078 30.7143L97.8761 12.5768L90.8932 12.0885ZM134.386 21.6913C134.205 24.2759 133.55 26.421 132.421 28.1267C131.292 29.8248 129.842 31.0714 128.07 31.8664C126.299 32.6538 124.362 32.9741 122.262 32.8272C120.146 32.6792 118.265 32.0883 116.621 31.0544C114.986 30.0135 113.727 28.5737 112.845 26.735C111.972 24.8893 111.625 22.6817 111.805 20.1122C111.986 17.5276 112.637 15.386 113.758 13.6874C114.887 11.9817 116.334 10.7349 118.097 9.94688C119.869 9.15188 121.813 8.82836 123.929 8.97633C126.03 9.12324 127.903 9.71363 129.547 10.7475C131.191 11.7738 132.454 13.2101 133.335 15.0563C134.216 16.895 134.567 19.1067 134.386 21.6913ZM127.902 21.2379C127.999 19.8473 127.896 18.663 127.592 17.6849C127.297 16.6997 126.807 15.9364 126.123 15.395C125.448 14.8466 124.589 14.5359 123.546 14.4629C122.503 14.39 121.605 14.5778 120.852 15.0264C120.107 15.468 119.516 16.1557 119.079 17.0896C118.65 18.0164 118.386 19.1751 118.289 20.5657C118.192 21.9562 118.291 23.144 118.587 24.1292C118.89 25.1073 119.38 25.8706 120.055 26.419C120.739 26.9605 121.602 27.2677 122.645 27.3406C123.688 27.4135 124.582 27.2292 125.327 26.7876C126.079 26.3391 126.671 25.6514 127.1 24.7245C127.537 23.7906 127.805 22.6284 127.902 21.2379ZM142.698 23.5027L143.283 15.1368L147.273 15.4158C147.93 15.4618 148.485 15.6183 148.937 15.8854C149.389 16.1524 149.722 16.506 149.934 16.9461C150.154 17.3867 150.244 17.8942 150.203 18.4686C150.163 19.0505 150 19.5365 149.714 19.9267C149.429 20.3168 149.04 20.6048 148.549 20.7907C148.058 20.969 147.48 21.0349 146.815 20.9884L144.185 20.8045L144.305 19.0814L146.55 19.2383C146.913 19.2637 147.195 19.1961 147.396 19.0355C147.597 18.8749 147.709 18.6283 147.732 18.2958C147.757 17.9406 147.681 17.6695 147.504 17.4825C147.328 17.2879 147.058 17.1779 146.696 17.1525L145.562 17.0733L145.101 23.6708L142.698 23.5027ZM148.496 20.0807L150.021 24.0148L147.391 23.8309L146.047 19.9095L148.496 20.0807ZM145.704 28.7252C144.45 28.6375 143.291 28.321 142.228 27.7758C141.165 27.2307 140.247 26.5134 139.474 25.6239C138.7 24.7345 138.118 23.7255 137.726 22.5969C137.334 21.4683 137.182 20.2768 137.27 19.0223C137.357 17.7678 137.674 16.609 138.219 15.5459C138.764 14.4829 139.481 13.5648 140.371 12.7916C141.26 12.0184 142.269 11.4359 143.398 11.044C144.526 10.652 145.718 10.4999 146.973 10.5877C148.227 10.6754 149.386 10.9918 150.449 11.537C151.512 12.0822 152.43 12.7995 153.203 13.6889C153.976 14.5784 154.559 15.5874 154.951 16.716C155.343 17.8445 155.495 19.0361 155.407 20.2906C155.319 21.5451 155.003 22.7039 154.458 23.7669C153.913 24.83 153.195 25.7481 152.306 26.5212C151.416 27.2944 150.407 27.877 149.279 28.2689C148.15 28.6608 146.959 28.8129 145.704 28.7252ZM145.882 26.1859C147.091 26.2705 148.207 26.0562 149.23 25.543C150.261 25.0227 151.103 24.2879 151.754 23.3386C152.413 22.3898 152.784 21.3146 152.868 20.113C152.952 18.9114 152.734 17.795 152.214 16.7638C151.701 15.7331 150.97 14.8921 150.021 14.241C149.072 13.5823 147.997 13.2109 146.795 13.1269C145.593 13.0429 144.477 13.261 143.446 13.7812C142.415 14.2939 141.57 15.0247 140.912 15.9735C140.26 16.9228 139.893 17.9982 139.809 19.1998C139.725 20.4015 139.939 21.5176 140.452 22.5483C140.973 23.572 141.707 24.4132 142.656 25.0719C143.605 25.7306 144.68 26.1019 145.882 26.1859Z"/>
</mask>
<path d="M22.825 10.974L22.6855 12.9691L24.8547 13.1208L24.8248 10.9464L22.825 10.974ZM16.4315 10.5269L14.4318 10.5583L14.4606 12.394L16.292 12.522L16.4315 10.5269ZM16.1694 9.06186L14.2863 9.73546L14.2912 9.74922L14.2963 9.76292L16.1694 9.06186ZM15.4536 7.89545L13.9751 9.24231L13.9907 9.25948L14.0068 9.27628L15.4536 7.89545ZM14.2914 7.08513L13.4761 8.91142L13.489 8.91716L13.5019 8.92272L14.2914 7.08513ZM9.94804 7.29403L8.91701 5.58024L8.90867 5.58531L9.94804 7.29403ZM8.13842 9.38881L6.33305 8.52809L6.32725 8.54047L8.13842 9.38881ZM7.65829 16.4179L5.75075 17.019L5.75362 17.0281L5.75657 17.0371L7.65829 16.4179ZM9.17407 18.6882L7.95129 20.2709L7.95702 20.2753L7.96279 20.2797L9.17407 18.6882ZM13.3222 19.4795L13.7823 21.4259L13.7967 21.4225L13.8112 21.4188L13.3222 19.4795ZM14.5689 18.9174L15.7283 20.5471L15.7283 20.5471L14.5689 18.9174ZM15.467 17.9664L13.7837 16.8863L13.7765 16.8976L15.467 17.9664ZM16.0035 16.6483L16.1571 14.6542L14.4301 14.5211L14.0517 16.2115L16.0035 16.6483ZM22.3938 17.1407L24.3723 17.4328L24.6855 15.3114L22.5474 15.1466L22.3938 17.1407ZM21.3562 20.0869L23.1024 21.062L23.1051 21.057L21.3562 20.0869ZM19.1305 22.7563L20.4293 24.2772L20.4294 24.2771L19.1305 22.7563ZM15.7554 24.5935L15.1344 22.6924L15.7554 24.5935ZM5.58296 23.2899L4.50882 24.9769L4.51199 24.9789L5.58296 23.2899ZM1.86357 18.9744L0.0474747 19.8122L0.0502286 19.8181L1.86357 18.9744ZM2.80996 5.92914L4.47913 7.0309L4.48113 7.02786L2.80996 5.92914ZM7.12696 2.18707L7.94613 4.01163L7.95244 4.00877L7.12696 2.18707ZM16.8958 2.09556L17.6454 0.241349L17.6454 0.241348L16.8958 2.09556ZM20.015 4.07934L18.634 5.52607L18.6411 5.53271L20.015 4.07934ZM22.0621 7.05894L20.2194 7.83635L20.2194 7.83636L22.0621 7.05894ZM22.9645 8.97884L16.571 8.53176L16.292 12.522L22.6855 12.9691L22.9645 8.97884ZM18.4313 10.4955C18.4197 9.76205 18.2982 9.04401 18.0425 8.3608L14.2963 9.76292C14.3734 9.96872 14.4266 10.2274 14.4318 10.5583L18.4313 10.4955ZM18.0526 8.38826C17.8016 7.68666 17.4166 7.05546 16.9004 6.51462L14.0068 9.27628C14.1274 9.4027 14.2196 9.5491 14.2863 9.73546L18.0526 8.38826ZM16.9321 6.54859C16.4117 5.97737 15.7817 5.54864 15.0809 5.24754L13.5019 8.92272C13.73 9.02073 13.8748 9.13221 13.9751 9.24231L16.9321 6.54859ZM15.1066 5.25884C14.3923 4.93995 13.6222 4.77145 12.8281 4.71592L12.5491 8.70618C12.9641 8.7352 13.2626 8.81609 13.4761 8.91142L15.1066 5.25884ZM12.8281 4.71592C11.4366 4.61862 10.0984 4.86952 8.91702 5.58026L10.9791 9.00779C11.3357 8.79326 11.8245 8.65551 12.5491 8.70618L12.8281 4.71592ZM8.90867 5.58531C7.76429 6.28142 6.91804 7.30117 6.33309 8.52811L9.94375 10.2495C10.2488 9.60973 10.6089 9.23297 10.9874 9.00274L8.90867 5.58531ZM6.32725 8.54047C5.75876 9.75419 5.45229 11.1488 5.34606 12.6679L9.33632 12.9469C9.41822 11.7757 9.64324 10.8912 9.94959 10.2371L6.32725 8.54047ZM5.34606 12.6679C5.23537 14.2509 5.34202 15.7218 5.75075 17.019L9.56583 15.8168C9.35306 15.1416 9.24831 14.2055 9.33632 12.9469L5.34606 12.6679ZM5.75657 17.0371C6.17714 18.3287 6.88826 19.4496 7.95129 20.2709L10.3968 17.1056C10.0765 16.8581 9.77712 16.4654 9.56001 15.7987L5.75657 17.0371ZM7.96279 20.2797C9.01654 21.0817 10.2637 21.487 11.6032 21.5807L11.8822 17.5904C11.1813 17.5414 10.716 17.3484 10.3853 17.0968L7.96279 20.2797ZM11.6032 21.5807C12.3465 21.6326 13.0795 21.592 13.7823 21.4259L12.862 17.5332C12.6227 17.5898 12.3028 17.6198 11.8822 17.5904L11.6032 21.5807ZM13.8112 21.4188C14.4989 21.2454 15.1467 20.9608 15.7283 20.5471L13.4096 17.2877C13.2719 17.3857 13.0885 17.4758 12.8331 17.5402L13.8112 21.4188ZM15.7283 20.5471C16.3027 20.1385 16.7815 19.6299 17.1575 19.0351L13.7765 16.8976C13.6744 17.0592 13.5544 17.1847 13.4096 17.2877L15.7283 20.5471ZM17.1503 19.0464C17.5365 18.4446 17.7989 17.7832 17.9552 17.0851L14.0517 16.2115C13.9871 16.5004 13.8919 16.7177 13.7837 16.8863L17.1503 19.0464ZM15.8498 18.6424L22.2401 19.1348L22.5474 15.1466L16.1571 14.6542L15.8498 18.6424ZM20.4152 16.8486C20.3107 17.5564 20.0544 18.3105 19.6072 19.1168L23.1051 21.057C23.7528 19.8894 24.1883 18.6794 24.3723 17.4328L20.4152 16.8486ZM19.61 19.1118C19.1895 19.8648 18.6059 20.5741 17.8315 21.2355L20.4294 24.2771C21.5288 23.338 22.429 22.2678 23.1024 21.062L19.61 19.1118ZM17.8316 21.2354C17.1273 21.837 16.2411 22.3309 15.1344 22.6924L16.3765 26.4947C17.9122 25.993 19.276 25.2621 20.4293 24.2772L17.8316 21.2354ZM15.1344 22.6924C14.1069 23.0281 12.8622 23.1724 11.3626 23.0675L11.0835 27.0577C12.9846 27.1907 14.7616 27.0222 16.3765 26.4947L15.1344 22.6924ZM11.3626 23.0675C9.52613 22.9391 7.97331 22.4373 6.65394 21.6008L4.51199 24.9789C6.4504 26.208 8.65763 26.8881 11.0835 27.0577L11.3626 23.0675ZM6.6571 21.6028C5.37674 20.7876 4.38411 19.6508 3.6769 18.1308L0.0502286 19.8181C1.05954 21.9875 2.54652 23.7276 4.50883 24.9769L6.6571 21.6028ZM3.67965 18.1367C3.00277 16.6694 2.68978 14.8156 2.85215 12.4935L-1.1381 12.2145C-1.33508 15.0314 -0.977044 17.5913 0.0474845 19.8122L3.67965 18.1367ZM2.85215 12.4935C3.01529 10.1605 3.59257 8.37403 4.47912 7.0309L1.14079 4.82738C-0.215102 6.88155 -0.939781 9.37834 -1.1381 12.2145L2.85215 12.4935ZM4.48113 7.02786C5.40703 5.61954 6.55859 4.63458 7.94613 4.01162L6.3078 0.362524C4.18283 1.31657 2.45639 2.82632 1.13878 4.83042L4.48113 7.02786ZM7.95244 4.00877C9.38189 3.36104 10.968 3.08219 12.7513 3.20689L13.0304 -0.783365C10.642 -0.950373 8.3856 -0.579014 6.30148 0.365371L7.95244 4.00877ZM12.7513 3.20689C14.0352 3.29667 15.1608 3.55142 16.1462 3.94977L17.6454 0.241348C16.2231 -0.333653 14.6788 -0.668097 13.0304 -0.783365L12.7513 3.20689ZM16.1462 3.94977C17.1329 4.34866 17.9541 4.87706 18.634 5.52605L21.3959 2.63263C20.3246 1.60993 19.0663 0.815807 17.6454 0.241349L16.1462 3.94977ZM18.6411 5.53271C19.3072 6.1625 19.8339 6.92252 20.2194 7.83635L23.9049 6.28154C23.3132 4.87914 22.4751 3.65276 21.3889 2.62597L18.6411 5.53271ZM20.2194 7.83636C20.5935 8.72306 20.8082 9.76779 20.8252 11.0015L24.8248 10.9464C24.8018 9.27635 24.5079 7.71106 23.9049 6.28153L20.2194 7.83636ZM24.6698 25.6839L22.6747 25.5444L22.5352 27.5396L24.5303 27.6791L24.6698 25.6839ZM26.2933 2.46791L26.4328 0.472782L24.4376 0.333269L24.2981 2.3284L26.2933 2.46791ZM40.7715 4.42581L39.7748 6.15976L40.7715 4.42581ZM43.5974 7.34596L45.374 6.42741L45.374 6.42741L43.5974 7.34596ZM42.9729 15.7889L41.3752 14.5857L41.3696 14.5932L42.9729 15.7889ZM39.6974 18.1571L39.0255 16.2733L39.0216 16.2747L39.6974 18.1571ZM29.0146 18.2872L27.0194 18.1477L26.8799 20.1428L28.8751 20.2823L29.0146 18.2872ZM29.357 13.3901L29.4965 11.3949L27.5014 11.2554L27.3619 13.2505L29.357 13.3901ZM35.9849 13.5801L36.5086 15.5103L36.5166 15.5082L36.5246 15.5059L35.9849 13.5801ZM37.2605 12.7694L35.7091 11.5071L35.7012 11.5168L35.6935 11.5266L37.2605 12.7694ZM37.4856 9.54999L35.7441 10.5334L35.7543 10.5515L35.7648 10.5693L37.4856 9.54999ZM36.3377 8.53562L35.4807 10.3427L35.4964 10.3502L35.5122 10.3573L36.3377 8.53562ZM32.2441 7.94181L32.3836 5.94668L30.3885 5.80717L30.249 7.80229L32.2441 7.94181ZM30.9726 26.1247L30.8331 28.1198L32.8282 28.2593L32.9678 26.2642L30.9726 26.1247ZM39.0181 15.9794L40.8369 15.1476L40.3428 14.0671L39.1576 13.9842L39.0181 15.9794ZM44.077 27.041L43.9375 29.0362L47.2961 29.271L45.8958 26.2092L44.077 27.041ZM37.2301 26.5622L35.4031 27.376L35.892 28.4736L37.0906 28.5574L37.2301 26.5622ZM32.3072 15.5101L32.4467 13.515L29.1257 13.2827L30.4803 16.3239L32.3072 15.5101ZM26.665 25.8235L28.2884 2.60742L24.2981 2.3284L22.6747 25.5444L26.665 25.8235ZM26.1537 4.46304L36.1747 5.16377L36.4538 1.17352L26.4328 0.472782L26.1537 4.46304ZM36.1747 5.16377C37.6555 5.26732 38.8359 5.62005 39.7748 6.15976L41.7682 2.69186C40.2103 1.79633 38.4192 1.31095 36.4538 1.17352L36.1747 5.16377ZM39.7748 6.15976C40.7047 6.69427 41.369 7.39071 41.8208 8.26451L45.374 6.42741C44.5548 4.84293 43.3352 3.5926 41.7682 2.69186L39.7748 6.15976ZM41.8208 8.26451C42.2577 9.1095 42.4773 10.1686 42.3827 11.5214L46.373 11.8004C46.5088 9.85825 46.2081 8.0407 45.374 6.42741L41.8208 8.26451ZM42.3827 11.5214C42.2874 12.8847 41.9161 13.8675 41.3752 14.5857L44.5705 16.992C45.6704 15.5315 46.2358 13.7624 46.373 11.8004L42.3827 11.5214ZM41.3696 14.5932C40.8094 15.3443 40.0522 15.9071 39.0255 16.2733L40.3693 20.0408C42.0841 19.4292 43.5106 18.4132 44.5761 16.9846L41.3696 14.5932ZM39.0216 16.2747C37.9709 16.6519 36.6917 16.8191 35.1395 16.7106L34.8604 20.7009C36.8451 20.8396 38.6974 20.6411 40.3732 20.0394L39.0216 16.2747ZM35.1395 16.7106L29.1541 16.2921L28.8751 20.2823L34.8604 20.7009L35.1395 16.7106ZM31.0097 18.4267L31.3521 13.5296L27.3619 13.2505L27.0194 18.1477L31.0097 18.4267ZM29.2175 15.3852L33.9333 15.7149L34.2123 11.7247L29.4965 11.3949L29.2175 15.3852ZM33.9333 15.7149C34.8257 15.7773 35.699 15.73 36.5086 15.5103L35.4612 11.6499C35.2026 11.7201 34.8011 11.7659 34.2123 11.7247L33.9333 15.7149ZM36.5246 15.5059C37.4154 15.2563 38.2227 14.7747 38.8275 14.0122L35.6935 11.5266C35.6819 11.5412 35.6389 11.6 35.4453 11.6543L36.5246 15.5059ZM38.8118 14.0317C39.4589 13.2365 39.7325 12.28 39.7981 11.3407L35.8079 11.0616C35.7816 11.4373 35.6935 11.5263 35.7091 11.5071L38.8118 14.0317ZM39.7981 11.3407C39.8641 10.3971 39.7279 9.41116 39.2064 8.53068L35.7648 10.5693C35.7655 10.5704 35.7691 10.5766 35.7743 10.5907C35.7796 10.6051 35.7873 10.6297 35.7945 10.6671C35.8092 10.7435 35.8213 10.8705 35.8079 11.0616L39.7981 11.3407ZM39.2271 8.56656C38.7451 7.71291 38.0193 7.10188 37.1631 6.71392L35.5122 10.3573C35.6865 10.4363 35.7261 10.5016 35.7441 10.5334L39.2271 8.56656ZM37.1946 6.72851C36.4023 6.3528 35.519 6.16593 34.6055 6.10205L34.3264 10.0923C34.8941 10.132 35.2586 10.2374 35.4807 10.3427L37.1946 6.72851ZM34.6055 6.10205L32.3836 5.94668L32.1046 9.93694L34.3264 10.0923L34.6055 6.10205ZM30.249 7.80229L28.9775 25.9852L32.9678 26.2642L34.2392 8.08132L30.249 7.80229ZM31.1121 24.1296L24.8094 23.6888L24.5303 27.6791L30.8331 28.1198L31.1121 24.1296ZM37.1993 16.8112L42.2582 27.8728L45.8958 26.2092L40.8369 15.1476L37.1993 16.8112ZM44.2165 25.0459L37.3696 24.5671L37.0906 28.5574L43.9375 29.0362L44.2165 25.0459ZM39.057 25.7485L34.1342 14.6963L30.4803 16.3239L35.4031 27.376L39.057 25.7485ZM32.1677 17.5052L38.8786 17.9745L39.1576 13.9842L32.4467 13.515L32.1677 17.5052ZM45.5729 3.81607L45.7124 1.82094L42.3805 1.58796L43.7483 4.63509L45.5729 3.81607ZM52.6012 4.30754L54.4597 3.5688L53.9952 2.40014L52.7407 2.31241L52.6012 4.30754ZM56.476 14.0561L54.6175 14.7949L55.082 15.9635L56.3365 16.0513L56.476 14.0561ZM56.6574 14.0688L56.5179 16.0639L57.7724 16.1517L58.3951 15.059L56.6574 14.0688ZM61.8513 4.95437L61.9908 2.95924L60.7363 2.87152L60.1137 3.96416L61.8513 4.95437ZM68.8796 5.44584L70.5725 6.51082L72.351 3.6837L69.0191 3.45071L68.8796 5.44584ZM59.242 20.7654L57.5492 19.7004L57.2819 20.1252L57.2469 20.6259L59.242 20.7654ZM58.7315 28.0658L58.592 30.0609L60.5872 30.2004L60.7267 28.2053L58.7315 28.0658ZM52.4741 27.6282L50.479 27.4887L50.3395 29.4838L52.3346 29.6233L52.4741 27.6282ZM52.9846 20.3279L54.9797 20.4674L55.0147 19.9667L54.8092 19.5088L52.9846 20.3279ZM45.4334 5.8112L52.4617 6.30267L52.7407 2.31241L45.7124 1.82094L45.4334 5.8112ZM50.7426 5.04628L54.6175 14.7949L58.3346 13.3174L54.4597 3.5688L50.7426 5.04628ZM56.3365 16.0513L56.5179 16.0639L56.7969 12.0737L56.6156 12.061L56.3365 16.0513ZM58.3951 15.059L63.589 5.94459L60.1137 3.96416L54.9198 13.0786L58.3951 15.059ZM61.7118 6.9495L68.7401 7.44097L69.0191 3.45071L61.9908 2.95924L61.7118 6.9495ZM67.1867 4.38085L57.5492 19.7004L60.9349 21.8304L70.5725 6.51082L67.1867 4.38085ZM57.2469 20.6259L56.7364 27.9263L60.7267 28.2053L61.2372 20.9049L57.2469 20.6259ZM58.8711 26.0706L52.6136 25.6331L52.3346 29.6233L58.592 30.0609L58.8711 26.0706ZM54.4692 27.7677L54.9797 20.4674L50.9895 20.1883L50.479 27.4887L54.4692 27.7677ZM54.8092 19.5088L47.3975 2.99705L43.7483 4.63509L51.16 21.1469L54.8092 19.5088ZM69.3108 28.8055L67.3157 28.666L67.1762 30.6612L69.1713 30.8007L69.3108 28.8055ZM70.9343 5.58951L71.0738 3.59438L69.0786 3.45487L68.9391 5.45L70.9343 5.58951ZM85.4069 7.62677L84.3543 9.32731L84.3543 9.32731L85.4069 7.62677ZM88.2218 10.7056L90.0157 9.82152L90.0157 9.82152L88.2218 10.7056ZM87.5837 19.3412L85.952 18.1847L85.9468 18.1921L87.5837 19.3412ZM84.2924 21.9361L83.5334 20.0858L83.5292 20.0875L84.2924 21.9361ZM73.6017 22.1796L71.6065 22.0401L71.467 24.0352L73.4622 24.1748L73.6017 22.1796ZM73.9441 17.2825L74.0836 15.2874L72.0885 15.1479L71.949 17.143L73.9441 17.2825ZM80.5799 17.3592L81.3366 19.2106L81.3474 19.2061L80.5799 17.3592ZM81.8713 16.3218L80.2271 15.1832L80.2204 15.1928L80.2139 15.2024L81.8713 16.3218ZM82.1099 12.9096L80.3189 13.7997L80.3273 13.8166L80.336 13.8333L82.1099 12.9096ZM80.9731 11.7366L79.9661 13.4646L79.981 13.4733L79.9961 13.4817L80.9731 11.7366ZM76.8851 11.0634L77.0246 9.06828L75.0295 8.92877L74.89 10.9239L76.8851 11.0634ZM75.6136 29.2463L75.4741 31.2414L77.4692 31.3809L77.6088 29.3858L75.6136 29.2463ZM71.306 28.9451L72.9294 5.72903L68.9391 5.45L67.3157 28.666L71.306 28.9451ZM70.7947 7.58464L80.8157 8.28538L81.0948 4.29512L71.0738 3.59438L70.7947 7.58464ZM80.8157 8.28538C82.2732 8.38729 83.4312 8.75588 84.3543 9.32731L86.4596 5.92622C84.8933 4.9566 83.0834 4.43418 81.0948 4.29512L80.8157 8.28538ZM84.3543 9.32731C85.2884 9.90558 85.9659 10.6524 86.4278 11.5897L90.0157 9.82152C89.214 8.19474 88.0149 6.889 86.4596 5.92622L84.3543 9.32731ZM86.4278 11.5897C86.8802 12.5078 87.0959 13.6103 87.0015 14.9604L90.9918 15.2394C91.1278 13.2946 90.8269 11.4675 90.0157 9.82152L86.4278 11.5897ZM87.0015 14.9604C86.9065 16.3192 86.5323 17.366 85.952 18.1847L89.2154 20.4978C90.2865 18.9866 90.8543 17.2059 90.9918 15.2394L87.0015 14.9604ZM85.9468 18.1921C85.3583 19.0304 84.5724 19.6596 83.5334 20.0858L85.0515 23.7865C86.7646 23.0838 88.1728 21.983 89.2207 20.4903L85.9468 18.1921ZM83.5292 20.0875C82.4972 20.5136 81.247 20.7094 79.7266 20.603L79.4475 24.5933C81.4639 24.7343 83.3506 24.4887 85.0557 23.7848L83.5292 20.0875ZM79.7266 20.603L73.7412 20.1845L73.4622 24.1748L79.4475 24.5933L79.7266 20.603ZM75.5968 22.3191L75.9392 17.422L71.949 17.143L71.6065 22.0401L75.5968 22.3191ZM73.8046 19.2776L78.5204 19.6074L78.7994 15.6171L74.0836 15.2874L73.8046 19.2776ZM78.5204 19.6074C79.4855 19.6749 80.4466 19.5743 81.3366 19.2105L79.8232 15.5079C79.6344 15.5851 79.3154 15.6532 78.7994 15.6171L78.5204 19.6074ZM81.3474 19.2061C82.2341 18.8377 82.9831 18.2491 83.5288 17.4411L80.2139 15.2024C80.1327 15.3227 80.0208 15.4257 79.8125 15.5123L81.3474 19.2061ZM83.5156 17.4603C84.0735 16.6546 84.3502 15.7344 84.4169 14.7797L80.4267 14.5007C80.4015 14.8609 80.3111 15.0618 80.2271 15.1832L83.5156 17.4603ZM84.4169 14.7797C84.4837 13.8243 84.3413 12.8646 83.8839 11.986L80.336 13.8333C80.3874 13.932 80.4529 14.126 80.4267 14.5007L84.4169 14.7797ZM83.901 12.0196C83.4646 11.1416 82.7909 10.4621 81.95 9.99142L79.9961 13.4817C80.1784 13.5838 80.2626 13.6864 80.3189 13.7997L83.901 12.0196ZM81.9801 10.0086C81.1493 9.52446 80.2116 9.29114 79.2465 9.22365L78.9674 13.2139C79.4835 13.25 79.7899 13.3619 79.9661 13.4646L81.9801 10.0086ZM79.2465 9.22365L77.0246 9.06828L76.7456 13.0585L78.9674 13.2139L79.2465 9.22365ZM74.89 10.9239L73.6185 29.1068L77.6088 29.3858L78.8802 11.2029L74.89 10.9239ZM75.7531 27.2512L69.4503 26.8104L69.1713 30.8007L75.4741 31.2414L75.7531 27.2512ZM90.8932 12.0885L88.898 11.949L88.7585 13.9441L90.7537 14.0836L90.8932 12.0885ZM91.2483 7.01001L91.3878 5.01488L89.3927 4.87537L89.2532 6.87049L91.2483 7.01001ZM111.426 8.42099L113.421 8.5605L113.561 6.56538L111.566 6.42586L111.426 8.42099ZM111.071 13.4995L110.932 15.4946L112.927 15.6341L113.066 13.639L111.071 13.4995ZM104.088 13.0112L104.228 11.0161L102.233 10.8766L102.093 12.8717L104.088 13.0112ZM102.82 31.1487L102.68 33.1439L104.676 33.2834L104.815 31.2882L102.82 31.1487ZM96.6078 30.7143L94.6127 30.5748L94.4732 32.57L96.4683 32.7095L96.6078 30.7143ZM97.8761 12.5768L99.8712 12.7163L100.011 10.7212L98.0156 10.5817L97.8761 12.5768ZM92.8883 12.228L93.2434 7.14952L89.2532 6.87049L88.898 11.949L92.8883 12.228ZM91.1088 9.00514L111.287 10.4161L111.566 6.42586L91.3878 5.01488L91.1088 9.00514ZM109.431 8.28148L109.076 13.36L113.066 13.639L113.421 8.5605L109.431 8.28148ZM111.211 11.5044L104.228 11.0161L103.949 15.0063L110.932 15.4946L111.211 11.5044ZM102.093 12.8717L100.825 31.0092L104.815 31.2882L106.083 13.1507L102.093 12.8717ZM102.959 29.1536L96.7473 28.7192L96.4683 32.7095L102.68 33.1439L102.959 29.1536ZM98.6029 30.8539L99.8712 12.7163L95.881 12.4373L94.6127 30.5748L98.6029 30.8539ZM98.0156 10.5817L91.0327 10.0934L90.7537 14.0836L97.7366 14.5719L98.0156 10.5817ZM132.421 28.1267L134.087 29.2339L134.089 29.2308L132.421 28.1267ZM128.07 31.8664L128.882 33.694L128.889 33.6911L128.07 31.8664ZM116.621 31.0544L115.548 32.7418L115.557 32.7475L116.621 31.0544ZM112.845 26.7351L111.038 27.5905L111.042 27.5996L112.845 26.7351ZM113.758 13.6874L112.09 12.5833L112.089 12.5856L113.758 13.6874ZM118.097 9.94688L118.913 11.7729L118.916 11.7716L118.097 9.94688ZM129.547 10.7475L128.482 12.4406L128.488 12.4442L129.547 10.7475ZM133.335 15.0563L131.53 15.9176L131.531 15.9209L133.335 15.0563ZM127.592 17.6849L125.677 18.2597L125.679 18.2689L125.682 18.278L127.592 17.6849ZM126.123 15.395L124.863 16.9477L124.872 16.9553L124.882 16.9628L126.123 15.395ZM120.852 15.0264L121.872 16.7468L121.876 16.7445L120.852 15.0264ZM119.079 17.0896L117.268 16.2412L117.264 16.2489L119.079 17.0896ZM118.587 24.1292L116.671 24.7041L116.674 24.7132L116.677 24.7223L118.587 24.1292ZM120.055 26.419L118.795 27.9717L118.804 27.9793L118.814 27.9869L120.055 26.419ZM125.327 26.7876L126.347 28.508L126.35 28.5058L125.327 26.7876ZM127.1 24.7245L125.289 23.8762L125.285 23.8839L127.1 24.7245ZM132.391 21.5518C132.228 23.8821 131.648 25.6718 130.753 27.0226L134.089 29.2308C135.453 27.1703 136.183 24.6696 136.381 21.8308L132.391 21.5518ZM130.755 27.0195C129.825 28.4198 128.661 29.409 127.251 30.0416L128.889 33.6911C131.023 32.7337 132.76 31.2298 134.087 29.2339L130.755 27.0195ZM127.258 30.0388C125.81 30.6821 124.205 30.9582 122.401 30.8321L122.122 34.8223C124.52 34.99 126.787 34.6255 128.882 33.6939L127.258 30.0388ZM122.401 30.8321C120.583 30.7049 119.026 30.2041 117.686 29.3614L115.557 32.7475C117.505 33.9725 119.708 34.6535 122.122 34.8223L122.401 30.8321ZM117.695 29.367C116.391 28.5374 115.377 27.3903 114.649 25.8705L111.042 27.5996C112.076 29.7572 113.58 31.4897 115.548 32.7418L117.695 29.367ZM114.653 25.8796C113.96 24.415 113.638 22.5669 113.8 20.2518L109.81 19.9727C109.612 22.7965 109.984 25.3637 111.038 27.5905L114.653 25.8796ZM113.8 20.2518C113.963 17.9187 114.54 16.1323 115.427 14.7891L112.089 12.5856C110.733 14.6398 110.008 17.1366 109.81 19.9727L113.8 20.2518ZM115.425 14.7915C116.358 13.3829 117.517 12.3967 118.913 11.7729L117.282 8.12082C115.15 9.07298 113.416 10.5805 112.09 12.5833L115.425 14.7915ZM118.916 11.7716C120.36 11.1236 121.971 10.8443 123.79 10.9715L124.069 6.9812C121.655 6.81243 119.378 7.18013 117.279 8.12214L118.916 11.7716ZM123.79 10.9715C125.591 11.0974 127.14 11.5966 128.482 12.4405L130.611 9.05445C128.665 7.83067 126.47 7.1491 124.069 6.9812L123.79 10.9715ZM128.488 12.4442C129.791 13.2574 130.804 14.3953 131.53 15.9176L135.14 14.1951C134.105 12.0249 132.592 10.2902 130.606 9.05079L128.488 12.4442ZM131.531 15.9209C132.228 17.3735 132.554 19.221 132.391 21.5518L136.381 21.8308C136.58 18.9923 136.205 16.4166 135.138 14.1918L131.531 15.9209ZM129.897 21.3774C130.006 19.823 129.901 18.3753 129.502 17.0918L125.682 18.278C125.891 18.9506 125.993 19.8716 125.907 21.0983L129.897 21.3774ZM129.508 17.11C129.116 15.8049 128.424 14.6659 127.365 13.8272L124.882 16.9628C125.19 17.207 125.477 17.5946 125.677 18.2597L129.508 17.11ZM127.384 13.8423C126.329 12.986 125.054 12.5635 123.685 12.4678L123.406 16.4581C124.123 16.5082 124.566 16.7071 124.863 16.9477L127.384 13.8423ZM123.685 12.4678C122.316 12.372 120.995 12.6132 119.828 13.3083L121.876 16.7445C122.215 16.5424 122.69 16.408 123.406 16.4581L123.685 12.4678ZM119.832 13.3061C118.68 13.9889 117.842 15.0147 117.268 16.2412L120.89 17.9379C121.19 17.2967 121.534 16.9471 121.872 16.7468L119.832 13.3061ZM117.264 16.2489C116.703 17.461 116.402 18.8755 116.294 20.4261L120.284 20.7052C120.37 19.4747 120.596 18.5718 120.894 17.9302L117.264 16.2489ZM116.294 20.4261C116.185 21.9776 116.286 23.4214 116.671 24.7041L120.502 23.5543C120.296 22.8667 120.198 21.9348 120.284 20.7052L116.294 20.4261ZM116.677 24.7223C117.076 26.0092 117.762 27.133 118.795 27.9717L121.316 24.8664C120.998 24.6081 120.704 24.2054 120.497 23.5361L116.677 24.7223ZM118.814 27.9869C119.872 28.8248 121.142 29.2404 122.506 29.3357L122.785 25.3455C122.062 25.2949 121.606 25.0961 121.297 24.8512L118.814 27.9869ZM122.506 29.3357C123.868 29.431 125.185 29.1966 126.347 28.508L124.307 25.0673C123.979 25.2617 123.508 25.396 122.785 25.3455L122.506 29.3357ZM126.35 28.5058C127.504 27.8185 128.345 26.7953 128.915 25.5651L125.285 23.8839C124.996 24.5074 124.655 24.8596 124.303 25.0695L126.35 28.5058ZM128.911 25.5728C129.483 24.3527 129.788 22.9325 129.897 21.3774L125.907 21.0983C125.821 22.3243 125.592 23.2285 125.289 23.8762L128.911 25.5728ZM142.698 23.5027L140.702 23.3632L140.563 25.3584L142.558 25.4979L142.698 23.5027ZM143.283 15.1368L143.422 13.1417L141.427 13.0022L141.287 14.9973L143.283 15.1368ZM148.937 15.8854L147.92 17.6075L147.92 17.6075L148.937 15.8854ZM149.934 16.9461L148.132 17.8148L148.138 17.8269L148.144 17.8388L149.934 16.9461ZM149.714 19.9267L151.328 21.1078L149.714 19.9267ZM148.549 20.7907L149.232 22.6705L149.244 22.666L149.256 22.6613L148.549 20.7907ZM144.185 20.8045L142.19 20.6649L142.05 22.6601L144.045 22.7996L144.185 20.8045ZM144.305 19.0814L144.445 17.0863L142.45 16.9468L142.31 18.9419L144.305 19.0814ZM147.396 19.0355L148.644 20.5982L148.644 20.5982L147.396 19.0355ZM147.504 17.4825L146.022 18.8251L146.036 18.8408L146.051 18.8563L147.504 17.4825ZM145.562 17.0733L145.702 15.0781L143.707 14.9386L143.567 16.9338L145.562 17.0733ZM145.101 23.6708L144.961 25.6659L146.956 25.8054L147.096 23.8103L145.101 23.6708ZM148.496 20.0807L150.361 19.3579L149.902 18.1741L148.635 18.0856L148.496 20.0807ZM150.021 24.0148L149.881 26.0099L153.024 26.2297L151.885 23.2921L150.021 24.0148ZM147.391 23.8309L145.499 24.4791L145.928 25.7335L147.251 25.826L147.391 23.8309ZM146.047 19.9095L146.187 17.9143L143.178 17.7039L144.155 20.5576L146.047 19.9095ZM142.228 27.7758L143.141 25.9962L142.228 27.7758ZM137.726 22.5969L135.837 23.253L137.726 22.5969ZM138.219 15.5459L136.439 14.6333L136.439 14.6333L138.219 15.5459ZM143.398 11.044L144.054 12.9333L143.398 11.044ZM153.203 13.6889L154.713 12.3768L154.713 12.3768L153.203 13.6889ZM154.951 16.716L153.062 17.3721L153.062 17.3721L154.951 16.716ZM154.458 23.7669L152.678 22.8542L152.678 22.8542L154.458 23.7669ZM152.306 26.5212L153.618 28.0307L153.618 28.0307L152.306 26.5212ZM149.23 25.543L150.127 27.3307L150.131 27.3286L149.23 25.543ZM151.754 23.3386L150.111 22.198L150.104 22.2073L151.754 23.3386ZM152.214 16.7638L150.423 17.6545L150.428 17.6646L152.214 16.7638ZM150.021 14.241L148.88 15.8839L148.889 15.8903L150.021 14.241ZM143.446 13.7812L144.336 15.572L144.347 15.5669L143.446 13.7812ZM140.912 15.9735L139.269 14.8329L139.262 14.8422L140.912 15.9735ZM140.452 22.5483L138.661 23.439L138.665 23.4471L138.669 23.4552L140.452 22.5483ZM142.656 25.0719L141.516 26.7147L141.516 26.7147L142.656 25.0719ZM144.693 23.6423L145.278 15.2763L141.287 14.9973L140.702 23.3632L144.693 23.6423ZM143.143 17.1319L147.133 17.411L147.412 13.4207L143.422 13.1417L143.143 17.1319ZM147.133 17.411C147.558 17.4407 147.795 17.5334 147.92 17.6075L149.954 14.1633C149.175 13.7032 148.302 13.4829 147.412 13.4207L147.133 17.411ZM147.92 17.6075C148.059 17.6894 148.105 17.7572 148.132 17.8148L151.735 16.0774C151.339 15.2547 150.72 14.6153 149.954 14.1633L147.92 17.6075ZM148.144 17.8388C148.179 17.9093 148.228 18.05 148.208 18.3291L152.199 18.6081C152.259 17.7385 152.128 16.8642 151.724 16.0534L148.144 17.8388ZM148.208 18.3291C148.188 18.6131 148.121 18.7174 148.1 18.7456L151.328 21.1078C151.879 20.3556 152.137 19.4879 152.199 18.6081L148.208 18.3291ZM148.1 18.7456C148.063 18.7957 148.003 18.8588 147.841 18.92L149.256 22.6613C150.077 22.3507 150.794 21.8379 151.328 21.1078L148.1 18.7456ZM147.866 18.9108C147.7 18.9711 147.415 19.0254 146.954 18.9932L146.675 22.9835C147.545 23.0443 148.416 22.9669 149.232 22.6705L147.866 18.9108ZM146.954 18.9932L144.324 18.8093L144.045 22.7996L146.675 22.9835L146.954 18.9932ZM146.18 20.944L146.3 19.2209L142.31 18.9419L142.19 20.6649L146.18 20.944ZM144.166 21.0765L146.41 21.2335L146.689 17.2432L144.445 17.0863L144.166 21.0765ZM146.41 21.2335C147.067 21.2794 147.914 21.1807 148.644 20.5982L146.147 17.4728C146.475 17.2115 146.758 17.248 146.689 17.2432L146.41 21.2335ZM148.644 20.5982C149.402 19.9927 149.677 19.1516 149.727 18.4353L145.737 18.1563C145.738 18.1374 145.747 18.0396 145.81 17.9019C145.877 17.7542 145.989 17.5992 146.147 17.4728L148.644 20.5982ZM149.727 18.4353C149.776 17.7432 149.648 16.8393 148.958 16.1086L146.051 18.8563C145.896 18.6925 145.809 18.5124 145.768 18.3657C145.73 18.2309 145.737 18.1495 145.737 18.1563L149.727 18.4353ZM148.987 16.1398C148.349 15.4356 147.512 15.2047 146.835 15.1574L146.556 19.1477C146.605 19.1511 146.307 19.1401 146.022 18.8251L148.987 16.1398ZM146.835 15.1574L145.702 15.0781L145.423 19.0684L146.556 19.1477L146.835 15.1574ZM143.567 16.9338L143.106 23.5313L147.096 23.8103L147.557 17.2128L143.567 16.9338ZM145.24 21.6757L142.837 21.5076L142.558 25.4979L144.961 25.6659L145.24 21.6757ZM146.631 20.8034L148.156 24.7376L151.885 23.2921L150.361 19.3579L146.631 20.8034ZM150.16 22.0197L147.53 21.8358L147.251 25.826L149.881 26.0099L150.16 22.0197ZM149.283 23.1828L147.939 19.2613L144.155 20.5576L145.499 24.4791L149.283 23.1828ZM145.908 21.9046L148.356 22.0758L148.635 18.0856L146.187 17.9143L145.908 21.9046ZM145.844 26.7301C144.844 26.6602 143.951 26.4116 143.141 25.9962L141.315 29.5555C142.631 30.2304 144.055 30.6148 145.565 30.7203L145.844 26.7301ZM143.141 25.9962C142.301 25.5658 141.587 25.0061 140.983 24.3118L137.964 26.936C138.907 28.0206 140.028 28.8955 141.315 29.5555L143.141 25.9962ZM140.983 24.3118C140.379 23.6175 139.925 22.8319 139.615 21.9408L135.837 23.253C136.311 24.6191 137.021 25.8515 137.964 26.936L140.983 24.3118ZM139.615 21.9408C139.317 21.0809 139.195 20.1611 139.265 19.1618L135.274 18.8828C135.169 20.3925 135.351 21.8558 135.837 23.253L139.615 21.9408ZM139.265 19.1618C139.335 18.1625 139.583 17.2686 139.999 16.4586L136.439 14.6333C135.764 15.9494 135.38 17.3731 135.274 18.8828L139.265 19.1618ZM139.999 16.4586C140.429 15.6193 140.989 14.9046 141.683 14.301L139.059 11.2822C137.974 12.225 137.099 13.3465 136.439 14.6333L139.999 16.4586ZM141.683 14.301C142.377 13.6975 143.163 13.2427 144.054 12.9333L142.742 9.15466C141.376 9.62906 140.143 10.3394 139.059 11.2822L141.683 14.301ZM144.054 12.9333C144.914 12.6347 145.834 12.5129 146.833 12.5828L147.112 8.59254C145.602 8.48697 144.139 8.66943 142.742 9.15466L144.054 12.9333ZM146.833 12.5828C147.832 12.6527 148.726 12.9012 149.536 13.3166L151.362 9.75741C150.045 9.08244 148.622 8.69811 147.112 8.59254L146.833 12.5828ZM149.536 13.3166C150.376 13.7471 151.09 14.3068 151.694 15.0011L154.713 12.3768C153.77 11.2923 152.648 10.4173 151.362 9.75741L149.536 13.3166ZM151.694 15.0011C152.297 15.6954 152.752 16.481 153.062 17.3721L156.84 16.0598C156.366 14.6938 155.655 13.4614 154.713 12.3768L151.694 15.0011ZM153.062 17.3721C153.36 18.232 153.482 19.1517 153.412 20.1511L157.402 20.4301C157.508 18.9204 157.325 17.4571 156.84 16.0598L153.062 17.3721ZM153.412 20.1511C153.342 21.1504 153.094 22.0443 152.678 22.8542L156.237 24.6796C156.912 23.3635 157.297 21.9398 157.402 20.4301L153.412 20.1511ZM152.678 22.8542C152.248 23.6936 151.688 24.4083 150.994 25.0118L153.618 28.0307C154.703 27.0879 155.577 25.9663 156.237 24.6796L152.678 22.8542ZM150.994 25.0118C150.299 25.6154 149.514 26.0701 148.623 26.3796L149.935 30.1582C151.301 29.6838 152.533 28.9735 153.618 28.0307L150.994 25.0118ZM148.623 26.3796C147.763 26.6782 146.843 26.7999 145.844 26.7301L145.565 30.7203C147.074 30.8259 148.538 30.6434 149.935 30.1582L148.623 26.3796ZM145.742 28.1811C147.287 28.2891 148.764 28.0143 150.127 27.3307L148.334 23.7552C147.65 24.0981 146.895 24.2519 146.021 24.1908L145.742 28.1811ZM150.131 27.3286C151.462 26.6572 152.561 25.6978 153.403 24.4699L150.104 22.2073C149.644 22.878 149.061 23.3882 148.329 23.7573L150.131 27.3286ZM153.397 24.4792C154.27 23.2215 154.755 21.7974 154.863 20.2525L150.873 19.9735C150.813 20.8319 150.555 21.5581 150.111 22.198L153.397 24.4792ZM154.863 20.2525C154.971 18.7077 154.689 17.2299 153.999 15.8629L150.428 17.6646C150.779 18.3601 150.933 19.1151 150.873 19.9735L154.863 20.2525ZM154.004 15.873C153.34 14.5375 152.382 13.4354 151.152 12.5917L148.889 15.8903C149.558 16.3489 150.062 16.9287 150.423 17.6545L154.004 15.873ZM151.161 12.5981C149.903 11.725 148.479 11.2398 146.934 11.1318L146.655 15.122C147.514 15.1821 148.24 15.4396 148.88 15.8839L151.161 12.5981ZM146.934 11.1318C145.39 11.0238 143.912 11.306 142.545 11.9956L144.347 15.5669C145.042 15.216 145.797 15.062 146.655 15.122L146.934 11.1318ZM142.555 11.9905C141.222 12.6537 140.119 13.6085 139.269 14.8329L142.554 17.114C143.022 16.4408 143.608 15.9342 144.336 15.5719L142.555 11.9905ZM139.262 14.8422C138.4 16.0993 137.921 17.5204 137.814 19.0603L141.804 19.3394C141.864 18.476 142.121 17.7463 142.561 17.1047L139.262 14.8422ZM137.814 19.0603C137.706 20.6002 137.982 22.0742 138.661 23.439L142.243 21.6576C141.896 20.961 141.744 20.2027 141.804 19.3394L137.814 19.0603ZM138.669 23.4552C139.341 24.7752 140.297 25.8686 141.516 26.7147L143.797 23.429C143.118 22.9577 142.604 22.3688 142.234 21.6415L138.669 23.4552ZM141.516 26.7147C142.773 27.5879 144.197 28.073 145.742 28.1811L146.021 24.1908C145.163 24.1308 144.437 23.8732 143.797 23.429L141.516 26.7147Z" fill="#0B090D" mask="url(#path-1-outside-1_677_3162)"/>
</svg>
