<svg width="157" height="36" viewBox="0 0 157 36" fill="none" xmlns="http://www.w3.org/2000/svg">
<mask id="path-1-outside-1_677_3151" maskUnits="userSpaceOnUse" x="-2.03304" y="-2.17174" width="161.633" height="40.0904" fill="black">
<rect fill="white" x="-2.03304" y="-2.17174" width="161.633" height="40.0904"/>
<path d="M22.9342 18.7259L16.5408 19.173C16.4584 18.6472 16.304 18.1757 16.0773 17.7587C15.8583 17.3411 15.5679 16.9893 15.2061 16.7033C14.8514 16.4091 14.4302 16.1955 13.9425 16.0626C13.4542 15.9221 12.9078 15.8729 12.3032 15.9152C11.2452 15.9892 10.3676 16.3088 9.67047 16.8739C8.98091 17.4385 8.48075 18.214 8.17 19.2002C7.8668 20.1858 7.76224 21.3513 7.85631 22.6965C7.95566 24.1172 8.22782 25.2943 8.6728 26.2277C9.12481 27.1529 9.73047 27.832 10.4898 28.265C11.2486 28.6903 12.1381 28.8674 13.1583 28.796C13.7403 28.7553 14.2567 28.6471 14.7076 28.4713C15.1581 28.2879 15.5435 28.0445 15.8641 27.7411C16.1846 27.4377 16.4369 27.0821 16.621 26.6743C16.8122 26.2584 16.9281 25.7985 16.9688 25.2944L23.3655 24.8927C23.3586 25.8804 23.1528 26.9011 22.748 27.9546C22.3427 29.0006 21.7319 29.985 20.9155 30.9078C20.1061 31.8225 19.0773 32.5856 17.829 33.1968C16.5807 33.8081 15.1064 34.1732 13.406 34.2921C11.2748 34.4412 9.33084 34.1176 7.57406 33.3216C5.82484 32.525 4.39691 31.2731 3.29027 29.5658C2.19119 27.858 1.55182 25.7194 1.37214 23.1499C1.19141 20.5653 1.53799 18.3539 2.4119 16.5157C3.28527 14.67 4.53667 13.2345 6.16609 12.2093C7.79499 11.1765 9.65234 10.5871 11.7382 10.4413C13.2043 10.3388 14.5673 10.4447 15.8271 10.7591C17.087 11.0735 18.2086 11.5836 19.1921 12.2895C20.175 12.9878 20.9889 13.8763 21.634 14.9552C22.279 16.034 22.7124 17.2909 22.9342 18.7259ZM26.8084 33.036L25.185 9.81996L35.2059 9.11922C36.929 8.99873 38.4586 9.20693 39.7948 9.74382C41.1309 10.2807 42.1992 11.1135 42.9996 12.2423C43.8 13.371 44.2578 14.7591 44.373 16.4066C44.4892 18.0692 44.217 19.497 43.5561 20.6899C42.9029 21.8823 41.9316 22.816 40.6422 23.4909C39.3603 24.1653 37.8352 24.5643 36.0668 24.688L30.0814 25.1065L29.739 20.2094L34.4547 19.8797C35.1953 19.8279 35.82 19.6931 36.3288 19.4752C36.8446 19.2493 37.228 18.9225 37.4791 18.4949C37.7378 18.0667 37.8441 17.5238 37.7981 16.8664C37.7516 16.2013 37.5702 15.671 37.254 15.2754C36.9448 14.8718 36.5188 14.5902 35.9761 14.4307C35.4403 14.2631 34.8022 14.2052 34.0615 14.257L31.8397 14.4124L33.1112 32.5953L26.8084 33.036ZM39.6664 21.429L46.2155 31.6789L39.3686 32.1577L32.9555 21.8982L39.6664 21.429ZM44.4646 8.47179L51.4929 7.98033L56.6868 17.0948L56.8681 17.0821L60.743 7.3335L67.7713 6.84203L60.3596 23.3538L60.8701 30.6542L54.6126 31.0917L54.1022 23.7914L44.4646 8.47179ZM71.4494 29.9144L69.8259 6.69835L79.8469 5.99762C81.57 5.87713 83.1015 6.11178 84.4413 6.70157C85.7812 7.29136 86.8531 8.17708 87.6572 9.35872C88.4613 10.5404 88.921 11.9549 89.0362 13.6024C89.1524 15.265 88.8828 16.7306 88.2273 17.9991C87.5793 19.2671 86.6132 20.2763 85.3291 21.0268C84.0526 21.7768 82.5301 22.2136 80.7617 22.3372L74.7763 22.7558L74.4339 17.8587L79.1496 17.5289C79.8902 17.4771 80.5123 17.3045 81.0158 17.0111C81.5263 16.7096 81.9044 16.3072 82.1502 15.804C82.4036 15.3003 82.5073 14.7197 82.4613 14.0622C82.4148 13.3971 82.2316 12.8404 81.9116 12.3919C81.5987 11.9353 81.169 11.6009 80.6226 11.3885C80.0832 11.168 79.4432 11.0836 78.7025 11.1354L76.4807 11.2908L77.7522 29.4737L71.4494 29.9144ZM90.4951 10.3564L90.14 5.27786L110.318 3.86688L110.673 8.94538L103.69 9.43368L104.958 27.5712L98.7463 28.0056L97.478 9.86807L90.4951 10.3564ZM134.901 13.8126C135.082 16.3972 134.732 18.6127 133.851 20.4589C132.969 22.2976 131.707 23.7339 130.063 24.7677C128.418 25.794 126.545 26.3807 124.444 26.5276C122.328 26.6755 120.384 26.352 118.613 25.557C116.848 24.7539 115.401 23.5033 114.272 21.8052C113.15 20.099 112.5 17.9611 112.32 15.3917C112.139 12.8071 112.486 10.5957 113.36 8.75752C114.241 6.91127 115.5 5.47525 117.137 4.44947C118.781 3.41561 120.661 2.82469 122.777 2.67672C124.878 2.52981 126.814 2.85385 128.586 3.64886C130.357 4.4363 131.808 5.68286 132.937 7.38855C134.066 9.08667 134.72 11.228 134.901 13.8126ZM128.417 14.266C128.32 12.8755 128.053 11.7171 127.616 10.7907C127.186 9.85633 126.595 9.16861 125.843 8.72759C125.097 8.27849 124.203 8.0904 123.16 8.16332C122.117 8.23625 121.254 8.54721 120.571 9.09619C119.895 9.63709 119.406 10.4004 119.103 11.386C118.806 12.3636 118.707 13.5477 118.804 14.9382C118.901 16.3288 119.165 17.4913 119.595 18.4257C120.032 19.352 120.623 20.0397 121.368 20.4888C122.12 20.9298 123.018 21.1139 124.061 21.041C125.104 20.968 125.963 20.6611 126.639 20.1202C127.322 19.5712 127.812 18.808 128.108 17.8304C128.411 16.8447 128.514 15.6566 128.417 14.266ZM143.384 14.4497L142.799 6.08379L146.789 5.80477C147.447 5.75879 148.018 5.83656 148.503 6.03807C148.988 6.23958 149.366 6.54349 149.637 6.94979C149.916 7.35556 150.076 7.84562 150.116 8.41998C150.157 9.00189 150.063 9.50587 149.834 9.93194C149.606 10.358 149.261 10.6973 148.801 10.9497C148.339 11.1946 147.776 11.3403 147.111 11.3868L144.481 11.5707L144.361 9.84765L146.605 9.6907C146.968 9.66533 147.238 9.55914 147.415 9.37211C147.591 9.18508 147.668 8.9253 147.645 8.59278C147.62 8.23759 147.507 7.97969 147.306 7.81908C147.104 7.65092 146.822 7.57952 146.459 7.60488L145.326 7.68415L145.787 14.2817L143.384 14.4497ZM148.65 10.254L150.707 13.9377L148.077 14.1216L146.201 10.4252L148.65 10.254ZM147.088 19.2029C145.834 19.2906 144.642 19.1385 143.514 18.7466C142.385 18.3547 141.376 17.7721 140.486 16.999C139.597 16.2258 138.88 15.3077 138.335 14.2446C137.789 13.1816 137.473 12.0228 137.385 10.7683C137.297 9.51379 137.45 8.32224 137.842 7.19367C138.233 6.0651 138.816 5.05609 139.589 4.16666C140.362 3.27723 141.28 2.55992 142.343 2.01474C143.407 1.46956 144.565 1.15311 145.82 1.06539C147.074 0.977662 148.266 1.12976 149.394 1.52169C150.523 1.91362 151.532 2.49617 152.421 3.26934C153.311 4.04251 154.028 4.96062 154.573 6.02366C155.119 7.08671 155.435 8.24549 155.523 9.5C155.61 10.7545 155.458 11.9461 155.066 13.0746C154.675 14.2032 154.092 15.2122 153.319 16.1016C152.546 16.9911 151.628 17.7084 150.564 18.2536C149.501 18.7987 148.343 19.1152 147.088 19.2029ZM146.911 16.6637C148.12 16.5791 149.195 16.2115 150.137 15.5609C151.086 14.9022 151.816 14.0575 152.329 13.0268C152.849 11.9956 153.068 10.8792 152.983 9.67756C152.899 8.47595 152.528 7.40075 151.869 6.45196C151.218 5.50265 150.377 4.77165 149.347 4.25896C148.315 3.73872 147.199 3.52061 145.997 3.60464C144.796 3.68866 143.721 4.06003 142.772 4.71872C141.822 5.36986 141.088 6.21105 140.567 7.24227C140.055 8.27297 139.84 9.38913 139.924 10.5907C140.008 11.7923 140.376 12.8678 141.027 13.8171C141.685 14.7584 142.53 15.4891 143.561 16.0093C144.593 16.5296 145.709 16.7477 146.911 16.6637Z"/>
</mask>
<path d="M22.9342 18.7259L23.0738 20.7211L25.243 20.5694L24.9108 18.4204L22.9342 18.7259ZM16.5408 19.173L14.5648 19.4824L14.8488 21.2962L16.6803 21.1681L16.5408 19.173ZM16.0773 17.7587L14.3063 18.6878L14.3131 18.7008L14.32 18.7136L16.0773 17.7587ZM15.2061 16.7033L13.9295 18.2428L13.9474 18.2576L13.9656 18.272L15.2061 16.7033ZM13.9425 16.0626L13.3893 17.9846L13.4028 17.9885L13.4164 17.9922L13.9425 16.0626ZM9.67047 16.8739L8.41096 15.3203L8.40341 15.3265L9.67047 16.8739ZM8.17 19.2002L6.26241 18.5991L6.25839 18.6122L8.17 19.2002ZM8.6728 26.2277L6.86747 27.0884L6.87158 27.097L6.87577 27.1055L8.6728 26.2277ZM10.4898 28.265L9.49918 30.0024L9.50548 30.006L9.5118 30.0095L10.4898 28.265ZM14.7076 28.4712L15.4342 30.3346L15.448 30.3292L15.4618 30.3236L14.7076 28.4712ZM15.8641 27.7411L17.2389 29.1936L17.239 29.1936L15.8641 27.7411ZM16.621 26.6743L14.8038 25.839L14.7983 25.8513L16.621 26.6743ZM16.9688 25.2944L16.8435 23.2983L15.1147 23.4069L14.9753 25.1335L16.9688 25.2944ZM23.3655 24.8927L25.3654 24.9066L25.3803 22.7622L23.2401 22.8966L23.3655 24.8927ZM22.748 27.9546L24.6129 28.6772L24.615 28.6719L22.748 27.9546ZM20.9155 30.9078L22.4133 32.2331L22.4134 32.233L20.9155 30.9078ZM17.829 33.1968L16.9494 31.4007L17.829 33.1968ZM7.57406 33.3216L6.74517 35.1417L6.74859 35.1433L7.57406 33.3216ZM3.29027 29.5658L1.60845 30.6482L1.612 30.6537L3.29027 29.5658ZM2.4119 16.5157L4.21816 17.3745L4.21972 17.3712L2.4119 16.5157ZM6.16609 12.2093L7.23122 13.9021L7.23707 13.8984L6.16609 12.2093ZM15.8271 10.7591L16.3114 8.81862L16.3114 8.81862L15.8271 10.7591ZM19.1921 12.2895L18.0259 13.9143L18.0338 13.9199L19.1921 12.2895ZM21.634 14.9552L19.9174 15.9815L19.9174 15.9815L21.634 14.9552ZM22.7947 16.7308L16.4013 17.1779L16.6803 21.1681L23.0738 20.7211L22.7947 16.7308ZM18.5167 18.8636C18.4032 18.1389 18.183 17.4448 17.8347 16.8038L14.32 18.7136C14.425 18.9067 14.5136 19.1554 14.5648 19.4824L18.5167 18.8636ZM17.8484 16.8296C17.5023 16.1697 17.0331 15.5983 16.4467 15.1345L13.9656 18.272C14.1026 18.3804 14.2143 18.5126 14.3063 18.6878L17.8484 16.8296ZM16.4828 15.1637C15.888 14.6705 15.2044 14.3336 14.4685 14.133L13.4164 17.9922C13.656 18.0575 13.8148 18.1477 13.9295 18.2428L16.4828 15.1637ZM14.4956 14.1406C13.7438 13.9242 12.9578 13.8645 12.1637 13.9201L12.4427 17.9103C12.8577 17.8813 13.1646 17.9199 13.3893 17.9846L14.4956 14.1406ZM12.1637 13.9201C10.7722 14.0174 9.48195 14.4521 8.41097 15.3203L10.93 18.4275C11.2532 18.1654 11.7181 17.961 12.4427 17.9103L12.1637 13.9201ZM8.40341 15.3265C7.36704 16.1751 6.67095 17.3027 6.26246 18.5991L10.0775 19.8012C10.2905 19.1252 10.5948 18.702 10.9375 18.4214L8.40341 15.3265ZM6.25839 18.6122C5.86435 19.8932 5.75495 21.3168 5.86118 22.836L9.85143 22.557C9.76953 21.3857 9.86926 20.4785 10.0816 19.7882L6.25839 18.6122ZM5.86118 22.836C5.97187 24.4189 6.28219 25.8607 6.86747 27.0884L10.4781 25.367C10.1735 24.7279 9.93944 23.8156 9.85143 22.557L5.86118 22.836ZM6.87577 27.1055C7.472 28.326 8.3322 29.337 9.49918 30.0024L11.4804 26.5275C11.1287 26.327 10.7776 25.9798 10.4698 25.3498L6.87577 27.1055ZM9.5118 30.0095C10.6669 30.6571 11.9583 30.8848 13.2979 30.7912L13.0188 26.8009C12.3179 26.8499 11.8303 26.7236 11.4678 26.5204L9.5118 30.0095ZM13.2979 30.7912C14.0411 30.7392 14.7614 30.5969 15.4342 30.3346L13.9811 26.6079C13.752 26.6972 13.4394 26.7715 13.0188 26.8009L13.2979 30.7912ZM15.4618 30.3236C16.1187 30.0562 16.7206 29.6842 17.2389 29.1936L14.4892 26.2886C14.3665 26.4048 14.1974 26.5196 13.9535 26.6189L15.4618 30.3236ZM17.239 29.1936C17.7509 28.7089 18.1542 28.1387 18.4438 27.4974L14.7983 25.8513C14.7196 26.0254 14.6183 26.1664 14.4892 26.2886L17.239 29.1936ZM18.4383 27.5096C18.7369 26.8599 18.9048 26.1684 18.9623 25.4554L14.9753 25.1335C14.9515 25.4286 14.8875 25.657 14.8038 25.839L18.4383 27.5096ZM17.0942 27.2905L23.4908 26.8888L23.2401 22.8966L16.8435 23.2983L17.0942 27.2905ZM21.3655 24.8788C21.3605 25.5942 21.2117 26.3767 20.8811 27.2373L24.615 28.6719C25.0938 27.4254 25.3567 26.1666 25.3654 24.9066L21.3655 24.8788ZM20.8831 27.232C20.5715 28.0362 20.0923 28.8198 19.4175 29.5826L22.4134 32.233C23.3714 31.1501 24.1139 29.9649 24.6129 28.6772L20.8831 27.232ZM19.4176 29.5825C18.8038 30.2762 17.995 30.8886 16.9494 31.4007L18.7086 34.993C20.1595 34.2825 21.4083 33.3689 22.4133 32.2331L19.4176 29.5825ZM16.9494 31.4007C15.9786 31.876 14.7662 32.1921 13.2665 32.297L13.5455 36.2873C15.4466 36.1543 17.1828 35.7402 18.7086 34.993L16.9494 31.4007ZM13.2665 32.297C11.43 32.4254 9.8225 32.1447 8.39954 31.4999L6.74859 35.1433C8.83918 36.0906 11.1196 36.4569 13.5455 36.2873L13.2665 32.297ZM8.40295 31.5014C7.0216 30.8724 5.88041 29.8848 4.96855 28.478L1.612 30.6537C2.91341 32.6614 4.62808 34.1776 6.74517 35.1417L8.40295 31.5014ZM4.97209 28.4834C4.09758 27.1246 3.52964 25.3324 3.36727 23.0104L-0.622988 23.2894C-0.426008 26.1063 0.284805 28.5914 1.60846 30.6482L4.97209 28.4834ZM3.36727 23.0104C3.20413 20.6773 3.52716 18.8279 4.21816 17.3745L0.605639 15.657C-0.451171 17.8799 -0.821311 20.4532 -0.622988 23.2894L3.36727 23.0104ZM4.21972 17.3712C4.94061 15.8477 5.94388 14.7121 7.23121 13.9021L5.10097 10.5165C3.12946 11.757 1.62994 13.4923 0.604077 15.6603L4.21972 17.3712ZM7.23707 13.8984C8.56246 13.058 10.0944 12.5611 11.8777 12.4364L11.5986 8.44616C9.21031 8.61317 7.02751 9.29495 5.09512 10.5202L7.23707 13.8984ZM11.8777 12.4364C13.1615 12.3466 14.3117 12.4423 15.3429 12.6996L16.3114 8.81862C14.8229 8.44716 13.247 8.33089 11.5986 8.44616L11.8777 12.4364ZM15.3429 12.6996C16.3755 12.9573 17.2623 13.3662 18.0259 13.9143L20.3582 10.6646C19.1549 9.80101 17.7984 9.18972 16.3114 8.81862L15.3429 12.6996ZM18.0338 13.9199C18.7811 14.4509 19.4084 15.1302 19.9174 15.9815L23.3505 13.9289C22.5695 12.6225 21.5688 11.5247 20.3504 10.659L18.0338 13.9199ZM19.9174 15.9815C20.4112 16.8075 20.7692 17.8122 20.9577 19.0315L24.9108 18.4204C24.6556 16.7697 24.1467 15.2606 23.3505 13.9289L19.9174 15.9815ZM26.8084 33.036L24.8133 33.1755L24.9528 35.1706L26.9479 35.0311L26.8084 33.036ZM25.185 9.81996L25.0454 7.82483L23.0503 7.96434L23.1898 9.95947L25.185 9.81996ZM39.7948 9.74382L39.0491 11.5996L39.7948 9.74382ZM42.9996 12.2423L44.6311 11.0854L44.6311 11.0854L42.9996 12.2423ZM43.5561 20.6899L41.8066 19.7208L41.8021 19.729L43.5561 20.6899ZM40.6422 23.4909L39.7147 21.719L39.7109 21.7209L40.6422 23.4909ZM30.0814 25.1065L28.0863 25.2461L28.2258 27.2412L30.2209 27.1017L30.0814 25.1065ZM29.739 20.2094L29.5995 18.2143L27.6043 18.3538L27.7438 20.3489L29.739 20.2094ZM36.3288 19.4752L37.116 21.3138L37.1236 21.3105L37.1312 21.3072L36.3288 19.4752ZM37.4791 18.4949L35.7672 17.4608L35.7607 17.4715L35.7544 17.4822L37.4791 18.4949ZM37.254 15.2754L35.6663 16.4917L35.6789 16.5081L35.6919 16.5243L37.254 15.2754ZM35.9761 14.4307L35.379 16.3395L35.3955 16.3447L35.4122 16.3496L35.9761 14.4307ZM31.8397 14.4124L31.7002 12.4173L29.7051 12.5568L29.8446 14.5519L31.8397 14.4124ZM33.1112 32.5953L33.2507 34.5904L35.2458 34.4509L35.1063 32.4557L33.1112 32.5953ZM39.6664 21.429L41.3518 20.3521L40.7121 19.351L39.5269 19.4338L39.6664 21.429ZM46.2155 31.6789L46.355 33.674L49.7136 33.4392L47.9009 30.6021L46.2155 31.6789ZM39.3686 32.1577L37.6727 33.2178L38.3096 34.2366L39.5081 34.1528L39.3686 32.1577ZM32.9555 21.8982L32.816 19.9031L29.4949 20.1353L31.2596 22.9583L32.9555 21.8982ZM28.8035 32.8965L27.1801 9.68044L23.1898 9.95947L24.8133 33.1755L28.8035 32.8965ZM25.3245 11.8151L35.3455 11.1143L35.0664 7.12409L25.0454 7.82483L25.3245 11.8151ZM35.3455 11.1143C36.8262 11.0108 38.0442 11.1958 39.0491 11.5996L40.5405 7.88803C38.873 7.21804 37.0318 6.98666 35.0664 7.12409L35.3455 11.1143ZM39.0491 11.5996C40.0443 11.9995 40.7991 12.5967 41.3681 13.3991L44.6311 11.0854C43.5993 9.63035 42.2176 8.56192 40.5405 7.88803L39.0491 11.5996ZM41.3681 13.3991C41.9184 14.1751 42.2832 15.1933 42.3778 16.5461L46.3681 16.2671C46.2323 14.3249 45.6816 12.5669 44.6311 11.0854L41.3681 13.3991ZM42.3778 16.5461C42.4732 17.9094 42.2423 18.9343 41.8066 19.7208L45.3057 21.6591C46.1916 20.0597 46.5053 18.229 46.3681 16.2671L42.3778 16.5461ZM41.8021 19.729C41.3519 20.5508 40.6804 21.2135 39.7147 21.719L41.5697 25.2629C43.1827 24.4185 44.4539 23.2139 45.3102 21.6509L41.8021 19.729ZM39.7109 21.7209C38.723 22.2407 37.4795 22.5843 35.9273 22.6929L36.2063 26.6831C38.1909 26.5444 39.9976 26.0899 41.5734 25.2609L39.7109 21.7209ZM35.9273 22.6929L29.9419 23.1114L30.2209 27.1017L36.2063 26.6831L35.9273 22.6929ZM32.0765 24.967L31.7341 20.0699L27.7438 20.3489L28.0863 25.2461L32.0765 24.967ZM29.8785 22.2045L34.5942 21.8748L34.3152 17.8845L29.5995 18.2143L29.8785 22.2045ZM34.5942 21.8748C35.4867 21.8124 36.3448 21.644 37.116 21.3138L35.5416 17.6367C35.2952 17.7421 34.904 17.8434 34.3152 17.8845L34.5942 21.8748ZM37.1312 21.3072C37.9786 20.936 38.7111 20.3467 39.2038 19.5075L35.7544 17.4822C35.745 17.4983 35.7106 17.5626 35.5264 17.6432L37.1312 21.3072ZM39.191 19.5289C39.7211 18.6514 39.8589 17.6662 39.7933 16.7268L35.803 17.0059C35.8293 17.3815 35.7544 17.4819 35.7672 17.4608L39.191 19.5289ZM39.7933 16.7268C39.7273 15.7833 39.4552 14.8259 38.8161 14.0266L35.6919 16.5243C35.6926 16.5253 35.6971 16.531 35.7042 16.5442C35.7115 16.5577 35.7225 16.581 35.7348 16.6171C35.76 16.6906 35.7896 16.8147 35.803 17.0059L39.7933 16.7268ZM38.8417 14.0592C38.2455 13.281 37.4418 12.7769 36.5399 12.5119L35.4122 16.3496C35.5958 16.4035 35.644 16.4626 35.6663 16.4917L38.8417 14.0592ZM36.5732 12.5219C35.7363 12.2601 34.8356 12.198 33.922 12.2619L34.2011 16.2521C34.7688 16.2125 35.1444 16.2661 35.379 16.3395L36.5732 12.5219ZM33.922 12.2619L31.7002 12.4173L31.9792 16.4075L34.2011 16.2521L33.922 12.2619ZM29.8446 14.5519L31.116 32.7348L35.1063 32.4557L33.8348 14.2729L29.8446 14.5519ZM32.9717 30.6001L26.6689 31.0409L26.9479 35.0311L33.2507 34.5904L32.9717 30.6001ZM37.981 22.5058L44.5302 32.7558L47.9009 30.6021L41.3518 20.3521L37.981 22.5058ZM46.076 29.6838L39.2291 30.1626L39.5081 34.1528L46.355 33.674L46.076 29.6838ZM41.0645 31.0976L34.6514 20.8381L31.2596 22.9583L37.6727 33.2178L41.0645 31.0976ZM33.095 23.8934L39.8059 23.4241L39.5269 19.4338L32.816 19.9031L33.095 23.8934ZM44.4646 8.47179L44.3251 6.47667L40.9932 6.70966L42.7717 9.53678L44.4646 8.47179ZM51.4929 7.98033L53.2305 6.99011L52.6079 5.89747L51.3534 5.9852L51.4929 7.98033ZM56.6868 17.0948L54.9491 18.085L55.5718 19.1776L56.8263 19.0899L56.6868 17.0948ZM56.8681 17.0821L57.0077 19.0772L58.2622 18.9895L58.7267 17.8208L56.8681 17.0821ZM60.743 7.3335L60.6035 5.33837L59.349 5.42609L58.8844 6.59475L60.743 7.3335ZM67.7713 6.84203L69.5959 7.66105L70.9637 4.61391L67.6318 4.8469L67.7713 6.84203ZM60.3596 23.3538L58.535 22.5348L58.3295 22.9927L58.3645 23.4933L60.3596 23.3538ZM60.8701 30.6542L61.0096 32.6493L63.0047 32.5098L62.8652 30.5147L60.8701 30.6542ZM54.6126 31.0917L52.6175 31.2312L52.757 33.2264L54.7522 33.0869L54.6126 31.0917ZM54.1022 23.7914L56.0973 23.6519L56.0623 23.1512L55.795 22.7264L54.1022 23.7914ZM44.6041 10.4669L51.6324 9.97546L51.3534 5.9852L44.3251 6.47667L44.6041 10.4669ZM49.7552 8.97054L54.9491 18.085L58.4244 16.1046L53.2305 6.99011L49.7552 8.97054ZM56.8263 19.0899L57.0077 19.0772L56.7286 15.087L56.5473 15.0996L56.8263 19.0899ZM58.7267 17.8208L62.6016 8.07224L58.8844 6.59475L55.0096 16.3433L58.7267 17.8208ZM60.8825 9.32862L67.9108 8.83716L67.6318 4.8469L60.6035 5.33837L60.8825 9.32862ZM65.9467 6.02301L58.535 22.5348L62.1842 24.1728L69.5959 7.66105L65.9467 6.02301ZM58.3645 23.4933L58.875 30.7937L62.8652 30.5147L62.3547 23.2143L58.3645 23.4933ZM60.7306 28.659L54.4731 29.0966L54.7522 33.0869L61.0096 32.6493L60.7306 28.659ZM56.6078 30.9522L56.0973 23.6519L52.107 23.9309L52.6175 31.2312L56.6078 30.9522ZM55.795 22.7264L46.1575 7.40681L42.7717 9.53678L52.4093 24.8564L55.795 22.7264ZM71.4494 29.9144L69.4542 30.0539L69.5938 32.049L71.5889 31.9095L71.4494 29.9144ZM69.8259 6.69835L69.6864 4.70323L67.6913 4.84274L67.8308 6.83787L69.8259 6.69835ZM84.4413 6.70157L83.6356 8.53208L83.6356 8.53208L84.4413 6.70157ZM87.6572 9.35872L89.3107 8.23355L89.3107 8.23355L87.6572 9.35872ZM88.2273 17.9991L86.4505 17.0809L86.4463 17.089L88.2273 17.9991ZM85.3291 21.0268L84.3199 19.3001L84.316 19.3024L85.3291 21.0268ZM74.7763 22.7558L72.7812 22.8953L72.9207 24.8904L74.9158 24.7509L74.7763 22.7558ZM74.4339 17.8587L74.2943 15.8635L72.2992 16.003L72.4387 17.9982L74.4339 17.8587ZM81.0158 17.0111L82.0228 18.7391L82.0328 18.7332L81.0158 17.0111ZM82.1502 15.804L80.3635 14.9054L80.3583 14.9158L80.3532 14.9262L82.1502 15.804ZM81.9116 12.3919L80.2619 13.5226L80.2726 13.5381L80.2835 13.5534L81.9116 12.3919ZM80.6226 11.3885L79.8659 13.2398L79.8819 13.2463L79.898 13.2526L80.6226 11.3885ZM76.4807 11.2908L76.3412 9.29566L74.3461 9.43517L74.4856 11.4303L76.4807 11.2908ZM77.7522 29.4737L77.8917 31.4688L79.8868 31.3293L79.7473 29.3341L77.7522 29.4737ZM73.4445 29.7749L71.8211 6.55884L67.8308 6.83787L69.4542 30.0539L73.4445 29.7749ZM69.9655 8.69348L79.9864 7.99275L79.7074 4.00249L69.6864 4.70323L69.9655 8.69348ZM79.9864 7.99275C81.4439 7.89083 82.6419 8.09468 83.6356 8.53208L85.2471 4.87107C83.561 4.12888 81.6961 3.86343 79.7074 4.00249L79.9864 7.99275ZM83.6356 8.53208C84.6411 8.97471 85.4159 9.61998 86.0037 10.4839L89.3107 8.23355C88.2904 6.73417 86.9213 5.60802 85.2471 4.87107L83.6356 8.53208ZM86.0037 10.4839C86.5796 11.3301 86.9466 12.3918 87.041 13.7419L91.0313 13.4629C90.8953 11.518 90.3431 9.75062 89.3107 8.23355L86.0037 10.4839ZM87.041 13.7419C87.136 15.1007 86.9112 16.1894 86.4505 17.0809L90.004 18.9173C90.8544 17.2717 91.1688 15.4294 91.0313 13.4629L87.041 13.7419ZM86.4463 17.089C85.9802 18.001 85.2895 18.7334 84.3199 19.3001L86.3383 22.7535C87.937 21.8192 89.1783 20.5331 90.0082 18.9092L86.4463 17.089ZM84.316 19.3024C83.3534 19.8679 82.1426 20.2358 80.6222 20.3421L80.9012 24.3324C82.9176 24.1914 84.7517 23.6856 86.3422 22.7512L84.316 19.3024ZM80.6222 20.3421L74.6368 20.7607L74.9158 24.7509L80.9012 24.3324L80.6222 20.3421ZM76.7714 22.6163L76.429 17.7191L72.4387 17.9982L72.7812 22.8953L76.7714 22.6163ZM74.5734 19.8538L79.2891 19.524L79.0101 15.5338L74.2943 15.8635L74.5734 19.8538ZM79.2891 19.524C80.2543 19.4565 81.192 19.2232 82.0228 18.7391L80.0088 15.2831C79.8325 15.3858 79.5262 15.4977 79.0101 15.5338L79.2891 19.524ZM82.0328 18.7332C82.8596 18.2449 83.5194 17.5578 83.9473 16.6818L80.3532 14.9262C80.2895 15.0567 80.193 15.1743 79.9987 15.289L82.0328 18.7332ZM83.937 16.7026C84.3773 15.8271 84.5232 14.8774 84.4564 13.9227L80.4662 14.2017C80.4914 14.5619 80.4299 14.7734 80.3635 14.9054L83.937 16.7026ZM84.4564 13.9227C84.3896 12.9672 84.1151 12.0367 83.5398 11.2304L80.2835 13.5534C80.3481 13.644 80.44 13.827 80.4662 14.2017L84.4564 13.9227ZM83.5614 11.2612C83.0071 10.4525 82.2453 9.87343 81.3472 9.52433L79.898 13.2526C80.0928 13.3283 80.1904 13.4182 80.2619 13.5226L83.5614 11.2612ZM81.3793 9.53714C80.4893 9.17334 79.5282 9.0728 78.563 9.14029L78.8421 13.1305C79.3581 13.0945 79.6771 13.1626 79.8659 13.2398L81.3793 9.53714ZM78.563 9.14029L76.3412 9.29566L76.6202 13.2859L78.8421 13.1305L78.563 9.14029ZM74.4856 11.4303L75.757 29.6132L79.7473 29.3341L78.4758 11.1513L74.4856 11.4303ZM77.6126 27.4785L71.3099 27.9193L71.5889 31.9095L77.8917 31.4688L77.6126 27.4785ZM90.4951 10.3564L88.5 10.4959L88.6395 12.491L90.6346 12.3515L90.4951 10.3564ZM90.14 5.27786L90.0005 3.28273L88.0053 3.42224L88.1449 5.41737L90.14 5.27786ZM110.318 3.86688L112.313 3.72736L112.174 1.73223L110.178 1.87175L110.318 3.86688ZM110.673 8.94538L110.813 10.9405L112.808 10.801L112.668 8.80587L110.673 8.94538ZM103.69 9.43368L103.551 7.43855L101.556 7.57806L101.695 9.57319L103.69 9.43368ZM104.958 27.5712L105.098 29.5663L107.093 29.4268L106.954 27.4317L104.958 27.5712ZM98.7464 28.0056L96.7512 28.1451L96.8907 30.1402L98.8859 30.0007L98.7464 28.0056ZM97.4781 9.86807L99.4732 9.72856L99.3337 7.73343L97.3385 7.87294L97.4781 9.86807ZM92.4902 10.2169L92.1351 5.13835L88.1449 5.41737L88.5 10.4959L92.4902 10.2169ZM90.2795 7.27299L110.457 5.862L110.178 1.87175L90.0005 3.28273L90.2795 7.27299ZM108.323 4.00639L108.678 9.0849L112.668 8.80587L112.313 3.72736L108.323 4.00639ZM110.534 6.95026L103.551 7.43855L103.83 11.4288L110.813 10.9405L110.534 6.95026ZM101.695 9.57319L102.963 27.7107L106.954 27.4317L105.685 9.29417L101.695 9.57319ZM104.819 25.5761L98.6068 26.0105L98.8859 30.0007L105.098 29.5663L104.819 25.5761ZM100.741 27.8661L99.4732 9.72856L95.4829 10.0076L96.7512 28.1451L100.741 27.8661ZM97.3385 7.87294L90.3556 8.36124L90.6346 12.3515L97.6176 11.8632L97.3385 7.87294ZM133.851 20.4589L135.654 21.3235L135.656 21.3202L133.851 20.4589ZM130.063 24.7677L131.122 26.4645L131.127 26.4608L130.063 24.7677ZM118.613 25.557L117.784 27.3774L117.794 27.3818L118.613 25.557ZM114.272 21.8052L112.601 22.9039L112.607 22.9124L114.272 21.8052ZM113.36 8.75752L111.555 7.89624L111.553 7.89878L113.36 8.75752ZM117.137 4.44947L118.199 6.14423L118.201 6.14252L117.137 4.44947ZM128.586 3.64886L127.767 5.47361L127.773 5.47641L128.586 3.64886ZM132.937 7.38855L131.269 8.49266L131.271 8.4957L132.937 7.38855ZM127.616 10.7907L125.799 11.6266L125.803 11.6353L125.807 11.6439L127.616 10.7907ZM125.843 8.72759L124.81 10.4406L124.821 10.4468L124.831 10.453L125.843 8.72759ZM120.571 9.09619L121.821 10.6579L121.824 10.6551L120.571 9.09619ZM119.103 11.3861L117.191 10.798L117.188 10.8062L119.103 11.3861ZM119.595 18.4257L117.778 19.2615L117.782 19.2702L117.786 19.2788L119.595 18.4257ZM121.368 20.4888L120.336 22.2018L120.346 22.2081L120.357 22.2142L121.368 20.4888ZM126.639 20.1202L127.889 21.6819L127.892 21.6791L126.639 20.1202ZM128.108 17.8304L126.196 17.2423L126.194 17.2505L128.108 17.8304ZM132.906 13.9521C133.069 16.2825 132.743 18.1355 132.046 19.5976L135.656 21.3202C136.72 19.0898 137.095 16.512 136.896 13.6731L132.906 13.9521ZM132.047 19.5943C131.321 21.1105 130.306 22.252 128.998 23.0747L131.127 26.4608C133.107 25.2157 134.618 23.4847 135.654 21.3235L132.047 19.5943ZM129.004 23.071C127.66 23.9095 126.109 24.4063 124.305 24.5324L124.584 28.5227C126.982 28.355 129.176 27.6786 131.122 26.4644L129.004 23.071ZM124.305 24.5324C122.486 24.6596 120.876 24.3803 119.431 23.7323L117.794 27.3818C119.893 28.3238 122.17 28.6915 124.584 28.5227L124.305 24.5324ZM119.441 23.7366C118.034 23.0965 116.871 22.1017 115.938 20.698L112.607 22.9124C113.931 24.905 115.661 26.4113 117.784 27.3774L119.441 23.7366ZM115.943 20.7065C115.053 19.3525 114.477 17.5673 114.315 15.2521L110.325 15.5312C110.522 18.355 111.248 20.8454 112.601 22.9039L115.943 20.7065ZM114.315 15.2521C114.152 12.9191 114.475 11.0697 115.166 9.61625L111.553 7.89878C110.497 10.1217 110.127 12.695 110.325 15.5312L114.315 15.2521ZM115.165 9.61879C115.892 8.09413 116.903 6.95626 118.199 6.14422L116.075 2.75472C114.097 3.99424 112.589 5.7284 111.555 7.89624L115.165 9.61879ZM118.201 6.14252C119.541 5.29982 121.098 4.79901 122.916 4.67185L122.637 0.681592C120.224 0.850368 118.02 1.53139 116.072 2.75642L118.201 6.14252ZM122.916 4.67185C124.717 4.54592 126.321 4.82464 127.767 5.4736L129.405 1.82411C127.307 0.883073 125.038 0.513694 122.637 0.681592L122.916 4.67185ZM127.773 5.47641C129.177 6.10036 130.338 7.08624 131.269 8.49265L134.605 6.28444C133.277 4.27949 131.537 2.77225 129.398 1.8213L127.773 5.47641ZM131.271 8.4957C132.163 9.83724 132.743 11.6214 132.906 13.9521L136.896 13.6731C136.698 10.8347 135.968 8.33609 134.603 6.28139L131.271 8.4957ZM130.412 14.1265C130.303 12.5722 129.998 11.1532 129.425 9.93759L125.807 11.6439C126.107 12.281 126.336 13.1788 126.422 14.4056L130.412 14.1265ZM129.433 9.95488C128.863 8.71696 128.019 7.6854 126.854 7.00222L124.831 10.453C125.17 10.6518 125.509 10.9957 125.799 11.6266L129.433 9.95488ZM126.875 7.01458C125.711 6.31336 124.39 6.07247 123.021 6.16819L123.3 10.1585C124.017 10.1083 124.483 10.2436 124.81 10.4406L126.875 7.01458ZM123.021 6.16819C121.651 6.26397 120.377 6.68662 119.318 7.53728L121.824 10.6551C122.132 10.4078 122.584 10.2085 123.3 10.1585L123.021 6.16819ZM119.322 7.53453C118.276 8.37096 117.589 9.50347 117.191 10.798L121.014 11.9741C121.222 11.2973 121.514 10.9032 121.821 10.6579L119.322 7.53453ZM117.188 10.8062C116.801 12.0846 116.701 13.5271 116.809 15.0778L120.799 14.7987C120.713 13.5683 120.812 12.6427 121.017 11.9659L117.188 10.8062ZM116.809 15.0778C116.917 16.6292 117.218 18.045 117.778 19.2615L121.412 17.5898C121.112 16.9376 120.885 16.0284 120.799 14.7987L116.809 15.0778ZM117.786 19.2788C118.361 20.4976 119.196 21.5151 120.336 22.2018L122.4 18.7758C122.049 18.5644 121.703 18.2064 121.404 17.5725L117.786 19.2788ZM120.357 22.2142C121.521 22.8968 122.837 23.1314 124.2 23.0361L123.921 19.0458C123.199 19.0963 122.72 18.9629 122.379 18.7635L120.357 22.2142ZM124.2 23.0361C125.563 22.9408 126.834 22.5255 127.889 21.6819L125.39 18.5586C125.092 18.7968 124.644 18.9953 123.921 19.0458L124.2 23.0361ZM127.892 21.6791C128.939 20.8381 129.629 19.7078 130.022 18.4103L126.194 17.2505C125.995 17.9081 125.706 18.3044 125.386 18.5613L127.892 21.6791ZM130.02 18.4184C130.416 17.1306 130.521 15.6817 130.412 14.1265L126.422 14.4056C126.508 15.6315 126.407 16.5588 126.196 17.2424L130.02 18.4184ZM143.384 14.4497L141.389 14.5892L141.528 16.5844L143.523 16.4449L143.384 14.4497ZM142.799 6.08379L142.659 4.08866L140.664 4.22818L140.804 6.22331L142.799 6.08379ZM148.503 6.03807L147.735 7.88496L147.735 7.88496L148.503 6.03807ZM149.637 6.94979L147.974 8.06078L147.982 8.07189L147.989 8.08289L149.637 6.94979ZM149.834 9.93194L151.597 10.8769L149.834 9.93194ZM148.801 10.9497L149.738 12.7162L149.75 12.71L149.762 12.7037L148.801 10.9497ZM144.481 11.5707L142.486 11.7102L142.626 13.7054L144.621 13.5658L144.481 11.5707ZM144.361 9.84765L144.221 7.85252L142.226 7.99204L142.366 9.98716L144.361 9.84765ZM147.415 9.37211L148.868 10.7459L148.868 10.7459L147.415 9.37211ZM147.306 7.81908L146.025 9.35496L146.041 9.36856L146.058 9.38181L147.306 7.81908ZM145.326 7.68415L145.186 5.68903L143.191 5.82854L143.331 7.82367L145.326 7.68415ZM145.787 14.2817L145.927 16.2768L147.922 16.1373L147.782 14.1422L145.787 14.2817ZM148.65 10.254L150.396 9.27876L149.777 8.17033L148.51 8.25889L148.65 10.254ZM150.707 13.9377L150.846 15.9328L153.989 15.713L152.453 12.9624L150.707 13.9377ZM148.077 14.1216L146.294 15.0267L146.894 16.2092L148.217 16.1167L148.077 14.1216ZM146.201 10.4252L146.061 8.43011L143.052 8.64053L144.418 11.3304L146.201 10.4252ZM143.514 18.7466L144.17 16.8573L143.514 18.7466ZM138.335 14.2446L136.555 15.1573L138.335 14.2446ZM137.842 7.19367L135.952 6.53756L135.952 6.53756L137.842 7.19367ZM142.343 2.01474L143.256 3.79436L142.343 2.01474ZM152.421 3.26934L153.734 1.75992L153.734 1.75992L152.421 3.26934ZM154.573 6.02366L152.794 6.93633L152.794 6.93633L154.573 6.02366ZM155.066 13.0746L153.177 12.4185L153.177 12.4185L155.066 13.0746ZM153.319 16.1016L154.828 17.4138L154.828 17.4138L153.319 16.1016ZM150.137 15.5609L151.274 17.2064L151.278 17.2038L150.137 15.5609ZM152.329 13.0268L150.543 12.126L150.538 12.1361L152.329 13.0268ZM151.869 6.45196L150.22 7.58325L150.227 7.59254L151.869 6.45196ZM149.347 4.25896L148.446 6.04463L148.456 6.04967L149.347 4.25896ZM142.772 4.71872L143.903 6.36806L143.912 6.36161L142.772 4.71872ZM140.567 7.24227L138.782 6.34142L138.777 6.35155L140.567 7.24227ZM141.027 13.8171L139.378 14.9484L139.383 14.9558L139.388 14.9632L141.027 13.8171ZM143.561 16.0093L142.66 17.795L142.66 17.795L143.561 16.0093ZM145.379 14.3102L144.794 5.94428L140.804 6.22331L141.389 14.5892L145.379 14.3102ZM142.938 8.07892L146.929 7.7999L146.65 3.80964L142.659 4.08866L142.938 8.07892ZM146.929 7.7999C147.354 7.77019 147.601 7.82907 147.735 7.88496L149.27 4.19119C148.435 3.84405 147.54 3.7474 146.65 3.80964L146.929 7.7999ZM147.735 7.88496C147.884 7.94683 147.939 8.00762 147.974 8.06078L151.3 5.8388C150.793 5.07936 150.091 4.53234 149.27 4.19118L147.735 7.88496ZM147.989 8.08289C148.034 8.14783 148.101 8.28044 148.121 8.55949L152.111 8.28046C152.05 7.4108 151.799 6.56328 151.285 5.81668L147.989 8.08289ZM148.121 8.55949C148.141 8.84353 148.088 8.95625 148.072 8.98697L151.597 10.8769C152.038 10.0555 152.173 9.16024 152.111 8.28046L148.121 8.55949ZM148.072 8.98697C148.042 9.04168 147.991 9.11267 147.84 9.19571L149.762 12.7037C150.532 12.2818 151.17 11.6743 151.597 10.8769L148.072 8.98697ZM147.863 9.1832C147.707 9.26596 147.432 9.35951 146.972 9.39169L147.251 13.3819C148.121 13.3211 148.972 13.1233 149.738 12.7162L147.863 9.1832ZM146.972 9.39169L144.342 9.57559L144.621 13.5658L147.251 13.3819L146.972 9.39169ZM146.476 11.4312L146.356 9.70814L142.366 9.98716L142.486 11.7102L146.476 11.4312ZM144.5 11.8428L146.745 11.6858L146.466 7.69557L144.221 7.85252L144.5 11.8428ZM146.745 11.6858C147.401 11.6399 148.227 11.4242 148.868 10.7459L145.961 7.99829C146.249 7.69405 146.534 7.69076 146.466 7.69557L146.745 11.6858ZM148.868 10.7459C149.534 10.0408 149.69 9.16954 149.64 8.45327L145.65 8.73229C145.648 8.71344 145.644 8.61525 145.687 8.47024C145.733 8.31463 145.822 8.14556 145.961 7.99829L148.868 10.7459ZM149.64 8.45327C149.592 7.76115 149.34 6.88376 148.554 6.25635L146.058 9.38181C145.882 9.24118 145.771 9.07493 145.709 8.93538C145.653 8.80711 145.649 8.72556 145.65 8.73229L149.64 8.45327ZM148.587 6.28321C147.857 5.67463 146.997 5.56242 146.32 5.60976L146.599 9.60001C146.647 9.59662 146.351 9.62721 146.025 9.35496L148.587 6.28321ZM146.32 5.60976L145.186 5.68903L145.465 9.67928L146.599 9.60001L146.32 5.60976ZM143.331 7.82367L143.792 14.4212L147.782 14.1422L147.321 7.54464L143.331 7.82367ZM145.648 12.2866L143.244 12.4546L143.523 16.4449L145.927 16.2768L145.648 12.2866ZM146.903 11.2293L148.961 14.9129L152.453 12.9624L150.396 9.27876L146.903 11.2293ZM150.567 11.9425L147.937 12.1264L148.217 16.1167L150.846 15.9328L150.567 11.9425ZM149.86 13.2164L147.984 9.52006L144.418 11.3304L146.294 15.0267L149.86 13.2164ZM146.34 12.4204L148.789 12.2491L148.51 8.25889L146.061 8.43011L146.34 12.4204ZM146.949 17.2078C145.949 17.2777 145.03 17.1559 144.17 16.8573L142.857 20.6359C144.255 21.1212 145.718 21.3036 147.228 21.198L146.949 17.2078ZM144.17 16.8573C143.279 16.5478 142.493 16.0931 141.799 15.4895L139.174 18.5084C140.259 19.4512 141.491 20.1615 142.857 20.6359L144.17 16.8573ZM141.799 15.4895C141.104 14.886 140.545 14.1713 140.114 13.332L136.555 15.1573C137.215 16.4441 138.09 17.5656 139.174 18.5084L141.799 15.4895ZM140.114 13.332C139.699 12.522 139.45 11.6281 139.38 10.6288L135.39 10.9078C135.496 12.4175 135.88 13.8412 136.555 15.1573L140.114 13.332ZM139.38 10.6288C139.31 9.62946 139.432 8.70969 139.731 7.84978L135.952 6.53756C135.467 7.9348 135.285 9.39811 135.39 10.9078L139.38 10.6288ZM139.731 7.84979C140.04 6.95871 140.495 6.17307 141.099 5.47878L138.08 2.85454C137.137 3.93911 136.427 5.17148 135.952 6.53756L139.731 7.84979ZM141.099 5.47878C141.702 4.78448 142.417 4.22481 143.256 3.79436L141.431 0.235126C140.144 0.895034 139.023 1.76997 138.08 2.85454L141.099 5.47878ZM143.256 3.79436C144.066 3.37896 144.96 3.13039 145.959 3.06051L145.68 -0.929743C144.171 -0.824174 142.747 -0.439839 141.431 0.235126L143.256 3.79436ZM145.959 3.06051C146.959 2.99063 147.878 3.11238 148.738 3.41101L150.051 -0.367626C148.653 -0.852854 147.19 -1.03531 145.68 -0.929743L145.959 3.06051ZM148.738 3.41101C149.629 3.72045 150.415 4.17522 151.109 4.77876L153.734 1.75992C152.649 0.817116 151.417 0.106778 150.051 -0.367626L148.738 3.41101ZM151.109 4.77876C151.804 5.3823 152.363 6.097 152.794 6.93633L156.353 5.11099C155.693 3.82424 154.818 2.70272 153.734 1.75992L151.109 4.77876ZM152.794 6.93633C153.209 7.74631 153.458 8.64019 153.528 9.63951L157.518 9.36049C157.412 7.85079 157.028 6.42711 156.353 5.11099L152.794 6.93633ZM153.528 9.63951C153.597 10.6388 153.476 11.5586 153.177 12.4185L156.956 13.7307C157.441 12.3335 157.623 10.8702 157.518 9.36049L153.528 9.63951ZM153.177 12.4185C152.868 13.3096 152.413 14.0952 151.809 14.7895L154.828 17.4138C155.771 16.3292 156.481 15.0968 156.956 13.7307L153.177 12.4185ZM151.809 14.7895C151.206 15.4838 150.491 16.0435 149.652 16.4739L151.477 20.0332C152.764 19.3733 153.885 18.4983 154.828 17.4138L151.809 14.7895ZM149.652 16.4739C148.842 16.8893 147.948 17.1379 146.949 17.2078L147.228 21.198C148.737 21.0925 150.161 20.7081 151.477 20.0332L149.652 16.4739ZM147.05 18.6588C148.595 18.5508 150.019 18.073 151.274 17.2064L149 13.9154C148.371 14.35 147.644 14.6075 146.771 14.6685L147.05 18.6588ZM151.278 17.2038C152.502 16.3538 153.457 15.2507 154.12 13.9175L150.538 12.1361C150.176 12.8643 149.67 13.4507 148.996 13.918L151.278 17.2038ZM154.115 13.9277C154.804 12.5607 155.087 11.0829 154.979 9.53805L150.988 9.81708C151.048 10.6755 150.894 11.4305 150.544 12.126L154.115 13.9277ZM154.979 9.53805C154.871 7.99322 154.385 6.56904 153.512 5.31139L150.227 7.59254C150.671 8.23247 150.928 8.95868 150.988 9.81708L154.979 9.53805ZM153.519 5.32069C152.675 4.09057 151.573 3.1326 150.237 2.46826L148.456 6.04967C149.182 6.4107 149.762 6.91472 150.22 7.58323L153.519 5.32069ZM150.247 2.47333C148.881 1.78373 147.403 1.50149 145.858 1.60951L146.137 5.59977C146.995 5.53974 147.75 5.69372 148.446 6.0446L150.247 2.47333ZM145.858 1.60951C144.313 1.71754 142.889 2.20271 141.631 3.07583L143.912 6.36161C144.552 5.91734 145.279 5.65979 146.137 5.59977L145.858 1.60951ZM141.641 3.06941C140.413 3.91166 139.453 5.01068 138.782 6.34144L142.353 8.14311C142.722 7.41142 143.232 6.82807 143.903 6.36803L141.641 3.06941ZM138.777 6.35155C138.098 7.7164 137.822 9.19034 137.929 10.7303L141.92 10.4512C141.859 9.58791 142.012 8.82954 142.358 8.13299L138.777 6.35155ZM137.929 10.7303C138.037 12.2702 138.516 13.6913 139.378 14.9484L142.677 12.6859C142.236 12.0443 141.98 11.3145 141.92 10.4512L137.929 10.7303ZM139.388 14.9632C140.237 16.177 141.336 17.1267 142.66 17.795L144.462 14.2237C143.724 13.8515 143.134 13.3397 142.666 12.671L139.388 14.9632ZM142.66 17.795C144.027 18.4846 145.505 18.7668 147.05 18.6588L146.771 14.6685C145.913 14.7286 145.158 14.5746 144.462 14.2237L142.66 17.795Z" fill="white" mask="url(#path-1-outside-1_677_3151)"/>
</svg>
