<svg width="112" height="32" viewBox="0 0 112 32" fill="none" xmlns="http://www.w3.org/2000/svg">
<g clip-path="url(#clip0_5117_536)">
<path d="M1.50574 16.3227L12.2616 1.26453M1.50574 16.3227L12.2616 30.3052M1.50574 16.3227C9.82554 17.7775 14.5116 17.8262 23.0174 16.3227M12.2616 1.26453V30.3052M12.2616 1.26453L16.1029 6.64243M23.0174 16.3227L12.2616 30.3052M23.0174 16.3227L19.176 10.9448" stroke="#7F35FF" stroke-width="1.93605" stroke-linecap="round" stroke-linejoin="round"/>
</g>
<path d="M47.1982 13.2391H43.9861C43.9274 12.8235 43.8077 12.4544 43.6268 12.1317C43.4459 11.8042 43.2136 11.5255 42.9301 11.2957C42.6465 11.0659 42.319 10.8899 41.9474 10.7677C41.5807 10.6455 41.1823 10.5844 40.752 10.5844C39.9747 10.5844 39.2975 10.7775 38.7206 11.1637C38.1437 11.5451 37.6964 12.1024 37.3786 12.8358C37.0608 13.5642 36.9019 14.4491 36.9019 15.4905C36.9019 16.5612 37.0608 17.4608 37.3786 18.1892C37.7013 18.9177 38.1511 19.4677 38.728 19.8393C39.3049 20.2108 39.9722 20.3966 40.73 20.3966C41.1554 20.3966 41.5489 20.3404 41.9107 20.2279C42.2774 20.1155 42.6025 19.9517 42.8861 19.7366C43.1696 19.5166 43.4043 19.2501 43.5901 18.9372C43.7808 18.6243 43.9128 18.2674 43.9861 17.8665L47.1982 17.8812C47.1151 18.5706 46.9073 19.2355 46.5748 19.8759C46.2473 20.5115 45.8048 21.0811 45.2475 21.5846C44.695 22.0833 44.035 22.4793 43.2674 22.7727C42.5047 23.0611 41.6418 23.2053 40.6787 23.2053C39.3391 23.2053 38.1413 22.9022 37.0853 22.296C36.0341 21.6897 35.203 20.8122 34.5919 19.6633C33.9856 18.5143 33.6825 17.1234 33.6825 15.4905C33.6825 13.8527 33.9905 12.4593 34.6065 11.3104C35.2226 10.1615 36.0586 9.28634 37.1146 8.68499C38.1706 8.07875 39.3587 7.77563 40.6787 7.77563C41.5489 7.77563 42.3556 7.89786 43.0988 8.14231C43.8468 8.38676 44.5092 8.74366 45.0861 9.213C45.663 9.67746 46.1324 10.247 46.4942 10.9217C46.8608 11.5964 47.0955 12.3689 47.1982 13.2391ZM49.4166 23V11.7357H52.4453V13.7011H52.5626C52.768 13.002 53.1127 12.474 53.5967 12.1171C54.0807 11.7553 54.638 11.5744 55.2687 11.5744C55.4252 11.5744 55.5938 11.5842 55.7747 11.6037C55.9556 11.6233 56.1145 11.6502 56.2514 11.6844V14.4565C56.1047 14.4125 55.9018 14.3733 55.6427 14.3391C55.3836 14.3049 55.1465 14.2878 54.9314 14.2878C54.4718 14.2878 54.0611 14.388 53.6993 14.5885C53.3424 14.784 53.0589 15.0578 52.8487 15.4098C52.6433 15.7618 52.5406 16.1676 52.5406 16.6272V23H49.4166ZM60.1382 27.2241C59.7422 27.2241 59.3706 27.1923 59.0235 27.1288C58.6812 27.0701 58.3977 26.9943 58.1728 26.9014L58.8768 24.5694C59.2435 24.6818 59.5735 24.7429 59.8668 24.7527C60.1651 24.7625 60.4217 24.694 60.6368 24.5474C60.8568 24.4007 61.0353 24.1514 61.1722 23.7994L61.3555 23.3227L57.3148 11.7357H60.6002L62.9322 20.0079H63.0496L65.4036 11.7357H68.711L64.3329 24.2174C64.1227 24.8236 63.8367 25.3516 63.4749 25.8014C63.118 26.2561 62.6658 26.6056 62.1182 26.8501C61.5706 27.0994 60.9106 27.2241 60.1382 27.2241ZM70.3097 27.2241V11.7357H73.3898V13.6278H73.5291C73.666 13.3247 73.864 13.0166 74.1232 12.7038C74.3872 12.386 74.7294 12.122 75.1499 11.9117C75.5752 11.6966 76.1032 11.5891 76.7339 11.5891C77.5552 11.5891 78.313 11.8042 79.0073 12.2344C79.7015 12.6598 80.2564 13.3027 80.672 14.1631C81.0876 15.0187 81.2953 16.0918 81.2953 17.3825C81.2953 18.639 81.0924 19.6999 80.6867 20.5653C80.2858 21.4257 79.7382 22.0784 79.0439 22.5233C78.3546 22.9633 77.5821 23.1833 76.7266 23.1833C76.1203 23.1833 75.6045 23.0831 75.1792 22.8827C74.7587 22.6822 74.4141 22.4304 74.1452 22.1273C73.8763 21.8193 73.6709 21.5089 73.5291 21.196H73.4338V27.2241H70.3097ZM73.3678 17.3679C73.3678 18.0377 73.4607 18.6219 73.6465 19.1206C73.8323 19.6193 74.1012 20.0079 74.4532 20.2866C74.8052 20.5604 75.233 20.6973 75.7365 20.6973C76.245 20.6973 76.6752 20.5579 77.0272 20.2793C77.3792 19.9957 77.6457 19.6046 77.8266 19.1059C78.0124 18.6023 78.1053 18.023 78.1053 17.3679C78.1053 16.7176 78.0148 16.1456 77.8339 15.6518C77.653 15.158 77.3866 14.7718 77.0346 14.4931C76.6826 14.2145 76.2499 14.0751 75.7365 14.0751C75.2281 14.0751 74.7978 14.2096 74.4458 14.4785C74.0987 14.7474 73.8323 15.1287 73.6465 15.6225C73.4607 16.1163 73.3678 16.6981 73.3678 17.3679ZM89.3695 11.7357V14.0825H82.586V11.7357H89.3695ZM84.1261 9.037H87.2501V19.5386C87.2501 19.827 87.2941 20.0519 87.3821 20.2133C87.4702 20.3697 87.5924 20.4797 87.7488 20.5433C87.9102 20.6068 88.0959 20.6386 88.3062 20.6386C88.4528 20.6386 88.5995 20.6264 88.7462 20.6019C88.8929 20.5726 89.0053 20.5506 89.0835 20.5359L89.5749 22.8607C89.4184 22.9096 89.1984 22.9658 88.9149 23.0293C88.6313 23.0978 88.2866 23.1393 87.8808 23.154C87.1279 23.1833 86.4679 23.0831 85.9008 22.8533C85.3385 22.6235 84.901 22.2666 84.5881 21.7826C84.2752 21.2986 84.1212 20.6875 84.1261 19.9493V9.037ZM96.373 23.22C95.2339 23.22 94.2488 22.978 93.4176 22.494C92.5914 22.0051 91.9534 21.3255 91.5036 20.4553C91.0538 19.5801 90.8289 18.5657 90.8289 17.4119C90.8289 16.2483 91.0538 15.2314 91.5036 14.3611C91.9534 13.486 92.5914 12.8064 93.4176 12.3224C94.2488 11.8335 95.2339 11.5891 96.373 11.5891C97.5122 11.5891 98.4949 11.8335 99.3211 12.3224C100.152 12.8064 100.793 13.486 101.242 14.3611C101.692 15.2314 101.917 16.2483 101.917 17.4119C101.917 18.5657 101.692 19.5801 101.242 20.4553C100.793 21.3255 100.152 22.0051 99.3211 22.494C98.4949 22.978 97.5122 23.22 96.373 23.22ZM96.3877 20.7999C96.9059 20.7999 97.3386 20.6533 97.6857 20.3599C98.0329 20.0617 98.2944 19.6559 98.4704 19.1426C98.6513 18.6292 98.7418 18.045 98.7418 17.3899C98.7418 16.7347 98.6513 16.1505 98.4704 15.6372C98.2944 15.1238 98.0329 14.718 97.6857 14.4198C97.3386 14.1216 96.9059 13.9724 96.3877 13.9724C95.8646 13.9724 95.4246 14.1216 95.0677 14.4198C94.7157 14.718 94.4492 15.1238 94.2683 15.6372C94.0923 16.1505 94.0043 16.7347 94.0043 17.3899C94.0043 18.045 94.0923 18.6292 94.2683 19.1426C94.4492 19.6559 94.7157 20.0617 95.0677 20.3599C95.4246 20.6533 95.8646 20.7999 96.3877 20.7999ZM105.509 12.9695V9.72222H107.08C107.309 9.72222 107.511 9.76623 107.687 9.85423C107.866 9.94223 108.004 10.0669 108.101 10.2282C108.201 10.3896 108.25 10.5832 108.25 10.8091C108.25 11.0379 108.199 11.2329 108.096 11.3943C107.994 11.5527 107.851 11.6744 107.67 11.7595C107.491 11.8416 107.284 11.8827 107.049 11.8827H105.993V11.2447H106.882C107.014 11.2447 107.121 11.208 107.203 11.1347C107.285 11.0613 107.326 10.9528 107.326 10.8091C107.326 10.6594 107.285 10.5509 107.203 10.4834C107.121 10.413 107.015 10.3778 106.886 10.3778H106.398V12.9695H105.509ZM107.621 11.4823L108.338 12.9695H107.366L106.706 11.4823H107.621ZM106.798 14.9055C106.311 14.9055 105.855 14.8146 105.43 14.6327C105.005 14.4509 104.631 14.1986 104.308 13.8759C103.985 13.5533 103.733 13.1792 103.551 12.7539C103.369 12.3286 103.278 11.8724 103.278 11.3855C103.278 10.8985 103.369 10.4424 103.551 10.017C103.733 9.59169 103.985 9.21768 104.308 8.895C104.631 8.57233 105.005 8.32006 105.43 8.13819C105.855 7.95632 106.311 7.86538 106.798 7.86538C107.285 7.86538 107.741 7.95632 108.167 8.13819C108.592 8.32006 108.966 8.57233 109.289 8.895C109.611 9.21768 109.864 9.59169 110.046 10.017C110.227 10.4424 110.318 10.8985 110.318 11.3855C110.318 11.8724 110.227 12.3286 110.046 12.7539C109.864 13.1792 109.611 13.5533 109.289 13.8759C108.966 14.1986 108.592 14.4509 108.167 14.6327C107.741 14.8146 107.285 14.9055 106.798 14.9055ZM106.798 13.9463C107.274 13.9463 107.705 13.8319 108.092 13.6031C108.479 13.3714 108.787 13.0619 109.016 12.6747C109.248 12.2875 109.364 11.8577 109.364 11.3855C109.364 10.9132 109.248 10.4834 109.016 10.0962C108.787 9.70902 108.478 9.40102 108.088 9.17221C107.7 8.94047 107.271 8.8246 106.798 8.8246C106.326 8.8246 105.896 8.94047 105.509 9.17221C105.122 9.40102 104.812 9.70902 104.581 10.0962C104.352 10.4834 104.237 10.9132 104.237 11.3855C104.237 11.8577 104.352 12.2875 104.581 12.6747C104.812 13.0619 105.122 13.3714 105.509 13.6031C105.896 13.8319 106.326 13.9463 106.798 13.9463Z" fill="white"/>
<defs>
<clipPath id="clip0_5117_536">
<rect width="24.5233" height="31.6221" fill="white" transform="translate(0 0.188965)"/>
</clipPath>
</defs>
</svg>
